<svg width="126" height="80" viewBox="0 0 126 80" fill="none" xmlns="http://www.w3.org/2000/svg">
<circle cx="30" cy="39" r="23.5" fill="white" stroke="black"/>
<circle cx="30" cy="57" r="5.5" fill="white" stroke="black"/>
<path d="M9.64563 70H10.9256V73.86H11.5256V74.59H10.9256V77H10.1156V74.59H7.42563L6.50563 73.24L9.64563 70ZM7.42563 73.33L7.78563 73.86H10.1156V70.55L7.42563 73.33ZM18.5978 71.69H19.3978V72.17L20.1978 71.69H20.6178L21.0778 72.38L22.2278 71.69H22.6178L23.4278 72.88V77H22.6178V72.98L22.2378 72.41H21.7278L21.4278 72.74V74.23H20.6178V72.98L20.2378 72.41H19.7078L19.3978 72.74V77H18.5978V71.69ZM25.5839 71.69H28.3839L29.2139 72.88L27.5639 74.58H25.5839V75.7L25.9739 76.28H28.0939L28.6539 75.73L29.0939 76.28L28.3939 77H25.5939L24.7839 75.8V72.52L25.5839 71.69ZM25.5839 72.73V73.86H27.2639L28.2739 72.8L28.0139 72.41H25.9039L25.5839 72.73ZM31.79 69.52H32.59V71.68H34.21V72.41H32.59V75.7L32.98 76.27H33.99L34.59 75.67L35 76.27L34.32 77H32.59L31.79 75.82V72.41H31V71.68H31.79V69.52ZM37.5761 71.69H40.3761L41.2061 72.88L39.5561 74.58H37.5761V75.7L37.9661 76.28H40.0861L40.6461 75.73L41.0861 76.28L40.3861 77H37.5861L36.7761 75.8V72.52L37.5761 71.69ZM37.5761 72.73V73.86H39.2561L40.2661 72.8L40.0061 72.41H37.8961L37.5761 72.73ZM42.7322 71.69H43.1722L44.1222 72.26L44.6722 71.69H46.7322L47.2522 72.45L46.6522 72.86L46.3522 72.41H44.9822L44.5422 72.88V76.28H45.9522V77H42.7322V76.28H43.7422V72.98L43.3522 72.41H42.7322V71.69ZM49.6383 71.69H52.3983L52.9183 72.46L52.4283 72.98L52.0283 72.39H49.9883L49.6783 72.66V73.42L50.0583 73.96H52.4183L53.0983 74.98V76.25L52.4183 77H49.2783L48.8783 76.38L49.3683 75.87L49.6383 76.28H52.0883L52.2983 76.04V75.1L52.0083 74.69H49.6383L48.8783 73.54V72.43L49.6383 71.69Z" fill="white"/>
<path d="M0.799531 3H5.02953V3.72H1.59953V5.07L1.65953 5.17H4.12953L5.23953 6.79V9.13L4.39953 10H0.799531V9.28H4.06953L4.42953 8.91V6.88L3.74953 5.9H1.28953L0.799531 5.17V3ZM7.61563 3H10.4356L11.2256 4.19V9.17L10.4356 10H7.61563L6.80563 8.8V3.83L7.61563 3ZM7.60563 4.05V7.59L10.4156 4.68V4.3L10.0256 3.72H7.91563L7.60563 4.05ZM7.60563 8.7L7.99563 9.28H10.1156L10.4156 8.95V5.71L7.60563 8.63V8.7ZM14.6517 5.07H15.3717V6.64H16.9417V7.36H15.3717V8.92H14.6517V7.36H13.0817V6.64H14.6517V5.07ZM24.5939 4.69H25.3939V5.17L26.1939 4.69H26.6139L27.0739 5.38L28.2239 4.69H28.6139L29.4239 5.88V10H28.6139V5.98L28.2339 5.41H27.7239L27.4239 5.74V7.23H26.6139V5.98L26.2339 5.41H25.7039L25.3939 5.74V10H24.5939V4.69ZM31.58 4.69H34.38L35.21 5.88L33.56 7.58H31.58V8.7L31.97 9.28H34.09L34.65 8.73L35.09 9.28L34.39 10H31.59L30.78 8.8V5.52L31.58 4.69ZM31.58 5.73V6.86H33.26L34.27 5.8L34.01 5.41H31.9L31.58 5.73ZM37.7861 2.52H38.5861V4.68H40.2061V5.41H38.5861V8.7L38.9761 9.27H39.9861L40.5861 8.67L40.9961 9.27L40.3161 10H38.5861L37.7861 8.82V5.41H36.9961V4.68H37.7861V2.52ZM43.5722 4.69H46.3722L47.2022 5.88L45.5522 7.58H43.5722V8.7L43.9622 9.28H46.0822L46.6422 8.73L47.0822 9.28L46.3822 10H43.5822L42.7722 8.8V5.52L43.5722 4.69ZM43.5722 5.73V6.86H45.2522L46.2622 5.8L46.0022 5.41H43.8922L43.5722 5.73ZM48.7283 4.69H49.1683L50.1183 5.26L50.6683 4.69H52.7283L53.2483 5.45L52.6483 5.86L52.3483 5.41H50.9783L50.5383 5.88V9.28H51.9483V10H48.7283V9.28H49.7383V5.98L49.3483 5.41H48.7283V4.69ZM55.6344 4.69H58.3944L58.9144 5.46L58.4244 5.98L58.0244 5.39H55.9844L55.6744 5.66V6.42L56.0544 6.96H58.4144L59.0944 7.98V9.25L58.4144 10H55.2744L54.8744 9.38L55.3644 8.87L55.6344 9.28H58.0844L58.2944 9.04V8.1L58.0044 7.69H55.6344L54.8744 6.54V5.43L55.6344 4.69Z" fill="white"/>
<path d="M69.2868 34.6H72.9828L74.6028 37.012V42.004L73.6428 43H69.2868V34.6ZM70.2468 35.464V42.136H73.2468L73.6308 41.74V37.132L72.5148 35.464H70.2468ZM76.3621 34.6H81.6661V35.476H79.4941V42.124H81.6661V43H76.3621V42.124H78.5341V35.476H76.3621V34.6ZM85.5134 34.6H88.8494V43H87.8894V39.16H84.5294V43H83.5694V36.604L85.5134 34.6ZM84.5294 36.832V38.296H87.8894V35.464H85.8614L84.5294 36.832ZM90.7527 34.6H91.7127V34.936L92.9727 36.796L95.0967 34.6H96.0687V43H95.0967V35.86L93.9087 37.108V38.2H92.8647V38.176L91.7127 36.472V43H90.7527V34.6ZM98.908 34.6H103.252V35.464H99.268L98.896 35.86V38.08H101.68V38.956H98.896V41.44L99.364 42.136H103.252V43H98.896L97.936 41.56V35.596L98.908 34.6ZM104.663 34.6H110.927V35.464H107.351L108.287 36.04V43H107.315V36.16L106.859 35.464H104.663V34.6ZM113.299 34.6H117.643V35.464H113.659L113.287 35.86V38.08H116.071V38.956H113.287V41.44L113.755 42.136H117.643V43H113.287L112.327 41.56V35.596L113.299 34.6ZM119.522 34.6H123.554L124.85 36.484V37.684L123.662 38.896L124.85 40.612V43H123.878V40.72L122.666 38.956H121.43L120.482 38.368V43H119.522V34.6ZM120.482 35.464V38.08H123.266L123.878 37.468V36.616L123.086 35.464H120.482Z" fill="white"/>
</svg>
