<svg width="336" height="435" viewBox="0 0 336 435" fill="none" xmlns="http://www.w3.org/2000/svg">
<path d="M21.6364 1L1 29.976L1 408.244L21.6364 434H316.5L335 408.244L335 29.976L316.5 1H21.6364Z" fill="black" stroke="white"/>
<path d="M32.42 60H35.2V67H34.4V63.8H31.6V67H30.8V61.67L32.42 60ZM31.6 61.86V63.08H34.4V60.72H32.71L31.6 61.86ZM37.6461 61.69H40.4061L40.9261 62.46L40.4361 62.98L40.0361 62.39H37.9961L37.6861 62.66V63.42L38.0661 63.96H40.4261L41.1061 64.98V66.25L40.4261 67H37.2861L36.8861 66.38L37.3761 65.87L37.6461 66.28H40.0961L40.3061 66.04V65.1L40.0161 64.69H37.6461L36.8861 63.54V62.43L37.6461 61.69ZM49.5183 61.47H52.6583L53.2883 62.4V67H52.4483V66.49L51.6083 67H49.5183L48.6783 65.75V65.35L50.2383 63.73H52.4483V62.21H49.5183V61.47ZM49.5183 65.65L49.9083 66.24H52.4483V64.49H50.5683L49.5183 65.57V65.65ZM55.6344 61.69H58.3944L58.9144 62.46L58.4244 62.98L58.0244 62.39H55.9844L55.6744 62.66V63.42L56.0544 63.96H58.4144L59.0944 64.98V66.25L58.4144 67H55.2744L54.8744 66.38L55.3644 65.87L55.6344 66.28H58.0844L58.2944 66.04V65.1L58.0044 64.69H55.6344L54.8744 63.54V62.43L55.6344 61.69ZM61.7705 59.52H62.5705V61.68H64.1905V62.41H62.5705V65.7L62.9605 66.27H63.9705L64.5705 65.67L64.9805 66.27L64.3005 67H62.5705L61.7705 65.82V62.41H60.9805V61.68H61.7705V59.52ZM67.5566 61.69H70.3566L71.1866 62.88L69.5366 64.58H67.5566V65.7L67.9466 66.28H70.0666L70.6266 65.73L71.0666 66.28L70.3666 67H67.5666L66.7566 65.8V62.52L67.5566 61.69ZM67.5566 62.73V63.86H69.2366L70.2466 62.8L69.9866 62.41H67.8766L67.5566 62.73ZM72.7127 61.69H73.1527L74.1027 62.26L74.6527 61.69H76.7127L77.2327 62.45L76.6327 62.86L76.3327 62.41H74.9627L74.5227 62.88V66.28H75.9327V67H72.7127V66.28H73.7227V62.98L73.3327 62.41H72.7127V61.69ZM79.5688 61.69H82.3988L83.1988 62.89V66.17L82.3988 67H79.5788L78.7688 65.8V62.52L79.5688 61.69ZM79.5588 65.7L79.9588 66.28H82.0788L82.3788 65.96V62.98L81.9988 62.41H79.8688L79.5588 62.74V65.7ZM85.1548 61.5H86.5648L87.3648 62.7V66.28H89.1748V67H84.7548V66.28H86.5648V62.8L86.1848 62.23H85.1548V61.5ZM86.4648 60.19H87.4648V59.19H86.4648V60.19ZM94.3809 59.51H95.1909V67H94.3809V66.52L93.5809 67H91.5909L90.7609 65.79V62.53L91.5709 61.68H93.5709L94.3809 62.16V59.51ZM91.5709 65.69L91.9509 66.27H94.0909L94.3809 65.97V62.98L94.0009 62.41H91.8809L91.5709 62.73V65.69ZM97.607 61.69H100.367L100.887 62.46L100.397 62.98L99.997 62.39H97.957L97.647 62.66V63.42L98.027 63.96H100.387L101.067 64.98V66.25L100.387 67H97.247L96.847 66.38L97.337 65.87L97.607 66.28H100.057L100.267 66.04V65.1L99.977 64.69H97.607L96.847 63.54V62.43L97.607 61.69ZM108.539 61.69H109.339V62.17L110.139 61.69H110.559L111.019 62.38L112.169 61.69H112.559L113.369 62.88V67H112.559V62.98L112.179 62.41H111.669L111.369 62.74V64.23H110.559V62.98L110.179 62.41H109.649L109.339 62.74V67H108.539V61.69ZM115.475 61.47H118.615L119.245 62.4V67H118.405V66.49L117.565 67H115.475L114.635 65.75V65.35L116.195 63.73H118.405V62.21H115.475V61.47ZM115.475 65.65L115.865 66.24H118.405V64.49H116.525L115.475 65.57V65.65ZM120.731 59.52H121.531V63.56L123.641 61.38H124.641L123.131 62.93L125.161 65.93V67H124.351V66.02L122.611 63.47L121.531 64.58V67H120.731V59.52ZM127.518 61.69H130.318L131.148 62.88L129.498 64.58H127.518V65.7L127.908 66.28H130.028L130.588 65.73L131.028 66.28L130.328 67H127.528L126.718 65.8V62.52L127.518 61.69ZM127.518 62.73V63.86H129.198L130.208 62.8L129.948 62.41H127.838L127.518 62.73ZM139.72 59.52H140.52V61.68H142.14V62.41H140.52V65.7L140.91 66.27H141.92L142.52 65.67L142.93 66.27L142.25 67H140.52L139.72 65.82V62.41H138.93V61.68H139.72V59.52ZM144.716 59.51H145.516V62.17L146.316 61.69H148.316L149.146 62.87V67H148.336V62.97L147.956 62.41H145.846L145.516 62.72V67H144.716V59.51ZM151.502 61.69H154.302L155.132 62.88L153.482 64.58H151.502V65.7L151.892 66.28H154.012L154.572 65.73L155.012 66.28L154.312 67H151.512L150.702 65.8V62.52L151.502 61.69ZM151.502 62.73V63.86H153.182L154.192 62.8L153.932 62.41H151.822L151.502 62.73ZM157.108 61.5H158.518L159.318 62.7V66.28H161.128V67H156.708V66.28H158.518V62.8L158.138 62.23H157.108V61.5ZM158.418 60.19H159.418V59.19H158.418V60.19ZM162.654 61.69H163.094L164.044 62.26L164.594 61.69H166.654L167.174 62.45L166.574 62.86L166.274 62.41H164.904L164.464 62.88V66.28H165.874V67H162.654V66.28H163.664V62.98L163.274 62.41H162.654V61.69ZM178.926 61.69H179.726V65.56L178.336 67H177.606L177.006 66.09L176.116 67H175.406L174.096 65.06V61.69H174.896V64.96L175.776 66.27H175.826L176.506 65.56V61.69H177.316V65.27L177.996 66.27H178.026L178.926 65.35V61.69ZM181.432 61.47H184.572L185.202 62.4V67H184.362V66.49L183.522 67H181.432L180.592 65.75V65.35L182.152 63.73H184.362V62.21H181.432V61.47ZM181.432 65.65L181.822 66.24H184.362V64.49H182.482L181.432 65.57V65.65ZM190.298 61.68H191.108V67.48L189.488 69.17H186.688V68.44H189.158L190.298 67.27V67H187.688L186.688 65.52V61.68H187.488V65.42L188.078 66.27H190.298V61.68ZM199.421 61.47H202.561L203.191 62.4V67H202.351V66.49L201.511 67H199.421L198.581 65.75V65.35L200.141 63.73H202.351V62.21H199.421V61.47ZM199.421 65.65L199.811 66.24H202.351V64.49H200.471L199.421 65.57V65.65ZM204.627 61.69H205.067L206.017 62.26L206.567 61.69H208.627L209.147 62.45L208.547 62.86L208.247 62.41H206.877L206.437 62.88V66.28H207.847V67H204.627V66.28H205.637V62.98L205.247 62.41H204.627V61.69ZM211.483 61.69H214.313L215.113 62.89V66.17L214.313 67H211.493L210.683 65.8V62.52L211.483 61.69ZM211.473 65.7L211.873 66.28H213.993L214.293 65.96V62.98L213.913 62.41H211.783L211.473 62.74V65.7ZM220.279 61.69H221.089V67H220.299V66.51L219.479 67H217.479L216.669 65.8V61.69H217.469V65.7L217.859 66.27H219.989L220.279 65.96V61.69ZM222.665 61.69H223.465V62.17L224.275 61.69H226.285L227.095 62.87V67H226.285V62.97L225.905 62.41H223.775L223.465 62.73V67H222.665V61.69ZM232.291 59.51H233.101V67H232.291V66.52L231.491 67H229.501L228.671 65.79V62.53L229.481 61.68H231.481L232.291 62.16V59.51ZM229.481 65.69L229.861 66.27H232.001L232.291 65.97V62.98L231.911 62.41H229.791L229.481 62.73V65.69ZM241.653 59.52H242.453V61.68H244.073V62.41H242.453V65.7L242.843 66.27H243.853L244.453 65.67L244.863 66.27L244.183 67H242.453L241.653 65.82V62.41H240.863V61.68H241.653V59.52ZM246.649 59.51H247.449V62.17L248.249 61.69H250.249L251.079 62.87V67H250.269V62.97L249.889 62.41H247.779L247.449 62.72V67H246.649V59.51ZM253.435 61.69H256.235L257.065 62.88L255.415 64.58H253.435V65.7L253.825 66.28H255.945L256.505 65.73L256.945 66.28L256.245 67H253.445L252.635 65.8V62.52L253.435 61.69ZM253.435 62.73V63.86H255.115L256.125 62.8L255.865 62.41H253.755L253.435 62.73ZM265.498 61.69H268.258L268.778 62.46L268.288 62.98L267.888 62.39H265.848L265.538 62.66V63.42L265.918 63.96H268.278L268.958 64.98V66.25L268.278 67H265.138L264.738 66.38L265.228 65.87L265.498 66.28H267.948L268.158 66.04V65.1L267.868 64.69H265.498L264.738 63.54V62.43L265.498 61.69ZM274.244 61.69H275.054V67H274.264V66.51L273.444 67H271.444L270.634 65.8V61.69H271.434V65.7L271.824 66.27H273.954L274.244 65.96V61.69ZM276.63 61.69H277.43V62.17L278.24 61.69H280.25L281.06 62.87V67H280.25V62.97L279.87 62.41H277.74L277.43 62.73V67H276.63V61.69ZM284.136 65.67H285.536V68.29L284.666 69.17L284.256 68.54L284.736 68.04V67H284.136V65.67ZM31.79 72.52H32.59V74.68H34.21V75.41H32.59V78.7L32.98 79.27H33.99L34.59 78.67L35 79.27L34.32 80H32.59L31.79 78.82V75.41H31V74.68H31.79V72.52ZM36.7861 72.51H37.5861V75.17L38.3861 74.69H40.3861L41.2161 75.87V80H40.4061V75.97L40.0261 75.41H37.9161L37.5861 75.72V80H36.7861V72.51ZM43.5722 74.69H46.3722L47.2022 75.88L45.5522 77.58H43.5722V78.7L43.9622 79.28H46.0822L46.6422 78.73L47.0822 79.28L46.3822 80H43.5822L42.7722 78.8V75.52L43.5722 74.69ZM43.5722 75.73V76.86H45.2522L46.2622 75.8L46.0022 75.41H43.8922L43.5722 75.73ZM49.1783 74.5H50.5883L51.3883 75.7V79.28H53.1983V80H48.7783V79.28H50.5883V75.8L50.2083 75.23H49.1783V74.5ZM50.4883 73.19H51.4883V72.19H50.4883V73.19ZM54.7244 74.69H55.1644L56.1144 75.26L56.6644 74.69H58.7244L59.2444 75.45L58.6444 75.86L58.3444 75.41H56.9744L56.5344 75.88V79.28H57.9444V80H54.7244V79.28H55.7344V75.98L55.3444 75.41H54.7244V74.69ZM67.5766 74.69H70.4066L71.2066 75.89V79.17L70.4066 80H67.5866L66.7766 78.8V75.52L67.5766 74.69ZM67.5666 78.7L67.9666 79.28H70.0866L70.3866 78.96V75.98L70.0066 75.41H67.8766L67.5666 75.74V78.7ZM72.7127 74.69H73.1527L74.1027 75.26L74.6527 74.69H76.7127L77.2327 75.45L76.6327 75.86L76.3327 75.41H74.9627L74.5227 75.88V79.28H75.9327V80H72.7127V79.28H73.7227V75.98L73.3327 75.41H72.7127V74.69ZM78.7688 72.52H79.5688V75.17L80.3688 74.68H82.3888L83.2088 75.9V79.16L82.3888 80H80.3888L79.5688 79.52V80H78.7688V72.52ZM79.5688 75.74V79.27H82.0988L82.3988 78.95V75.99L82.0088 75.41H79.8888L79.5688 75.74ZM85.1548 74.5H86.5648L87.3648 75.7V79.28H89.1748V80H84.7548V79.28H86.5648V75.8L86.1848 75.23H85.1548V74.5ZM86.4648 73.19H87.4648V72.19H86.4648V73.19ZM91.7509 72.52H92.5509V74.68H94.1709V75.41H92.5509V78.7L92.9409 79.27H93.9509L94.5509 78.67L94.9609 79.27L94.2809 80H92.5509L91.7509 78.82V75.41H90.9609V74.68H91.7509V72.52ZM103.553 74.69H106.363L107.073 75.75L106.563 76.28L105.973 75.41H103.863L103.553 75.73V78.7L103.943 79.28H106.053L106.643 78.67L107.053 79.28L106.363 80H103.563L102.753 78.8V75.52L103.553 74.69ZM109.479 74.47H112.619L113.249 75.4V80H112.409V79.49L111.569 80H109.479L108.639 78.75V78.35L110.199 76.73H112.409V75.21H109.479V74.47ZM109.479 78.65L109.869 79.24H112.409V77.49H110.529L109.479 78.57V78.65ZM114.735 74.69H115.535V75.17L116.345 74.69H118.355L119.165 75.87V80H118.355V75.97L117.975 75.41H115.845L115.535 75.73V80H114.735V74.69ZM127.128 74.5H128.538L129.338 75.7V79.28H131.148V80H126.728V79.28H128.538V75.8L128.158 75.23H127.128V74.5ZM128.438 73.19H129.438V72.19H128.438V73.19ZM132.724 74.69H133.524V75.17L134.334 74.69H136.344L137.154 75.87V80H136.344V75.97L135.964 75.41H133.834L133.524 75.73V80H132.724V74.69ZM139.72 72.52H140.52V74.68H142.14V75.41H140.52V78.7L140.91 79.27H141.92L142.52 78.67L142.93 79.27L142.25 80H140.52L139.72 78.82V75.41H138.93V74.68H139.72V72.52ZM145.506 74.69H148.306L149.136 75.88L147.486 77.58H145.506V78.7L145.896 79.28H148.016L148.576 78.73L149.016 79.28L148.316 80H145.516L144.706 78.8V75.52L145.506 74.69ZM145.506 75.73V76.86H147.186L148.196 75.8L147.936 75.41H145.826L145.506 75.73ZM150.662 74.69H151.102L152.052 75.26L152.602 74.69H154.662L155.182 75.45L154.582 75.86L154.282 75.41H152.912L152.472 75.88V79.28H153.882V80H150.662V79.28H151.672V75.98L151.282 75.41H150.662V74.69ZM157.568 74.69H160.328L160.848 75.46L160.358 75.98L159.958 75.39H157.918L157.608 75.66V76.42L157.988 76.96H160.348L161.028 77.98V79.25L160.348 80H157.208L156.808 79.38L157.298 78.87L157.568 79.28H160.018L160.228 79.04V78.1L159.938 77.69H157.568L156.808 76.54V75.43L157.568 74.69ZM163.494 74.69H166.294L167.124 75.88L165.474 77.58H163.494V78.7L163.884 79.28H166.004L166.564 78.73L167.004 79.28L166.304 80H163.504L162.694 78.8V75.52L163.494 74.69ZM163.494 75.73V76.86H165.174L166.184 75.8L165.924 75.41H163.814L163.494 75.73ZM169.51 74.69H172.32L173.03 75.75L172.52 76.28L171.93 75.41H169.82L169.51 75.73V78.7L169.9 79.28H172.01L172.6 78.67L173.01 79.28L172.32 80H169.52L168.71 78.8V75.52L169.51 74.69ZM175.696 72.52H176.496V74.68H178.116V75.41H176.496V78.7L176.886 79.27H177.896L178.496 78.67L178.906 79.27L178.226 80H176.496L175.696 78.82V75.41H174.906V74.68H175.696V72.52ZM190.918 74.69H191.718V78.56L190.328 80H189.598L188.998 79.09L188.108 80H187.398L186.088 78.06V74.69H186.888V77.96L187.768 79.27H187.818L188.498 78.56V74.69H189.308V78.27L189.988 79.27H190.018L190.918 78.35V74.69ZM193.085 74.5H194.495L195.295 75.7V79.28H197.105V80H192.685V79.28H194.495V75.8L194.115 75.23H193.085V74.5ZM194.395 73.19H195.395V72.19H194.395V73.19ZM199.681 72.52H200.481V74.68H202.101V75.41H200.481V78.7L200.871 79.27H201.881L202.481 78.67L202.891 79.27L202.211 80H200.481L199.681 78.82V75.41H198.891V74.68H199.681V72.52ZM204.677 72.51H205.477V75.17L206.277 74.69H208.277L209.107 75.87V80H208.297V75.97L207.917 75.41H205.807L205.477 75.72V80H204.677V72.51ZM217.459 74.69H220.259L221.089 75.88L219.439 77.58H217.459V78.7L217.849 79.28H219.969L220.529 78.73L220.969 79.28L220.269 80H217.469L216.659 78.8V75.52L217.459 74.69ZM217.459 75.73V76.86H219.139L220.149 75.8L219.889 75.41H217.779L217.459 75.73ZM223.405 74.47H226.545L227.175 75.4V80H226.335V79.49L225.495 80H223.405L222.565 78.75V78.35L224.125 76.73H226.335V75.21H223.405V74.47ZM223.405 78.65L223.795 79.24H226.335V77.49H224.455L223.405 78.57V78.65ZM228.611 74.69H229.051L230.001 75.26L230.551 74.69H232.611L233.131 75.45L232.531 75.86L232.231 75.41H230.861L230.421 75.88V79.28H231.831V80H228.611V79.28H229.621V75.98L229.231 75.41H228.611V74.69ZM235.657 72.52H236.457V74.68H238.077V75.41H236.457V78.7L236.847 79.27H237.857L238.457 78.67L238.867 79.27L238.187 80H236.457L235.657 78.82V75.41H234.867V74.68H235.657V72.52ZM240.653 72.51H241.453V75.17L242.253 74.69H244.253L245.083 75.87V80H244.273V75.97L243.893 75.41H241.783L241.453 75.72V80H240.653V72.51ZM248.159 73H249.559V75.62L248.689 76.5L248.279 75.87L248.759 75.37V74.33H248.159V73ZM253.505 74.69H256.265L256.785 75.46L256.295 75.98L255.895 75.39H253.855L253.545 75.66V76.42L253.925 76.96H256.285L256.965 77.98V79.25L256.285 80H253.145L252.745 79.38L253.235 78.87L253.505 79.28H255.955L256.165 79.04V78.1L255.875 77.69H253.505L252.745 76.54V75.43L253.505 74.69ZM266.238 74.69H268.268L269.058 75.89V79.17L268.258 80H266.248L265.438 79.52V82.16H264.638V74.69H265.438V75.18L266.238 74.69ZM265.438 78.7L265.838 79.28H267.948L268.248 78.97V75.99L267.868 75.42H265.748L265.438 75.73V78.7ZM274.244 74.69H275.054V80H274.264V79.51L273.444 80H271.444L270.634 78.8V74.69H271.434V78.7L271.824 79.27H273.954L274.244 78.96V74.69ZM276.62 72.52H278.12L278.93 73V78.71L279.31 79.28H281.05L281.04 80H278.93L278.12 78.81V73.24H276.62V72.52ZM282.616 72.52H284.116L284.926 73V78.71L285.306 79.28H287.046L287.036 80H284.926L284.116 78.81V73.24H282.616V72.52ZM290.132 80V78.6H291.532V80H290.132ZM34.41 86H35.22V93H34.41V90.33L31.98 86.72H31.59V93H30.79V86H32.36L34.41 89.03V86ZM37.5961 87.69H40.4261L41.2261 88.89V92.17L40.4261 93H37.6061L36.7961 91.8V88.52L37.5961 87.69ZM37.5861 91.7L37.9861 92.28H40.1061L40.4061 91.96V88.98L40.0261 88.41H37.8961L37.5861 88.74V91.7ZM47.0122 87.69H47.8122V91.56L46.4222 93H45.6922L45.0922 92.09L44.2022 93H43.4922L42.1822 91.06V87.69H42.9822V90.96L43.8622 92.27H43.9122L44.5922 91.56V87.69H45.4022V91.27L46.0822 92.27H46.1122L47.0122 91.35V87.69ZM50.2883 91.67H51.6883V94.29L50.8183 95.17L50.4083 94.54L50.8883 94.04V93H50.2883V91.67ZM64.4005 85.51H65.2105V93H64.4005V92.52L63.6005 93H61.6105L60.7805 91.79V88.53L61.5905 87.68H63.5905L64.4005 88.16V85.51ZM61.5905 91.69L61.9705 92.27H64.1105L64.4005 91.97V88.98L64.0205 88.41H61.9005L61.5905 88.73V91.69ZM67.5066 87.47H70.6466L71.2766 88.4V93H70.4366V92.49L69.5966 93H67.5066L66.6666 91.75V91.35L68.2266 89.73H70.4366V88.21H67.5066V87.47ZM67.5066 91.65L67.8966 92.24H70.4366V90.49H68.5566L67.5066 91.57V91.65ZM72.7627 87.69H73.5627V88.17L74.3727 87.69H76.3827L77.1927 88.87V93H76.3827V88.97L76.0027 88.41H73.8727L73.5627 88.73V93H72.7627V87.69ZM80.2088 92.41L79.6388 92.96V93.76L80.0388 94.36H81.5288L82.3688 93.51V92.71L82.1788 92.41H80.2088ZM79.6388 88.67V90.21H81.5588L82.3688 89.71V88.75L81.9888 88.2H80.0688L79.6388 88.67ZM81.5788 90.95H80.0388L79.6688 91.33L79.8788 91.67H82.5688L83.1788 92.62V93.68L81.8288 95.09H79.6688L78.8288 93.84V92.79L79.3988 92.22L78.7488 91.25L79.2688 90.73L78.8288 90.46V88.45L79.7688 87.47H81.5688L82.3688 87.96V87.47H83.1788V89.97L81.5788 90.95ZM85.5448 87.69H88.3448L89.1748 88.88L87.5248 90.58H85.5448V91.7L85.9348 92.28H88.0548L88.6148 91.73L89.0548 92.28L88.3548 93H85.5548L84.7448 91.8V88.52L85.5448 87.69ZM85.5448 88.73V89.86H87.2248L88.2348 88.8L87.9748 88.41H85.8648L85.5448 88.73ZM90.7009 87.69H91.1409L92.0909 88.26L92.6409 87.69H94.7009L95.2209 88.45L94.6209 88.86L94.3209 88.41H92.9509L92.5109 88.88V92.28H93.9209V93H90.7009V92.28H91.7109V88.98L91.3209 88.41H90.7009V87.69ZM97.557 87.69H100.387L101.187 88.89V92.17L100.387 93H97.567L96.757 91.8V88.52L97.557 87.69ZM97.547 91.7L97.947 92.28H100.067L100.367 91.96V88.98L99.987 88.41H97.857L97.547 88.74V91.7ZM106.353 87.69H107.163V93H106.373V92.51L105.553 93H103.553L102.743 91.8V87.69H103.543V91.7L103.933 92.27H106.063L106.353 91.96V87.69ZM109.599 87.69H112.359L112.879 88.46L112.389 88.98L111.989 88.39H109.949L109.639 88.66V89.42L110.019 89.96H112.379L113.059 90.98V92.25L112.379 93H109.239L108.839 92.38L109.329 91.87L109.599 92.28H112.049L112.259 92.04V91.1L111.969 90.69H109.599L108.839 89.54V88.43L109.599 87.69ZM121.471 87.47H124.611L125.241 88.4V93H124.401V92.49L123.561 93H121.471L120.631 91.75V91.35L122.191 89.73H124.401V88.21H121.471V87.47ZM121.471 91.65L121.861 92.24H124.401V90.49H122.521L121.471 91.57V91.65ZM127.588 87.69H130.348L130.868 88.46L130.378 88.98L129.978 88.39H127.938L127.628 88.66V89.42L128.008 89.96H130.368L131.048 90.98V92.25L130.368 93H127.228L126.828 92.38L127.318 91.87L127.588 92.28H130.038L130.248 92.04V91.1L129.958 90.69H127.588L126.828 89.54V88.43L127.588 87.69ZM133.724 85.52H134.524V87.68H136.144V88.41H134.524V91.7L134.914 92.27H135.924L136.524 91.67L136.934 92.27L136.254 93H134.524L133.724 91.82V88.41H132.934V87.68H133.724V85.52ZM139.51 87.69H142.31L143.14 88.88L141.49 90.58H139.51V91.7L139.9 92.28H142.02L142.58 91.73L143.02 92.28L142.32 93H139.52L138.71 91.8V88.52L139.51 87.69ZM139.51 88.73V89.86H141.19L142.2 88.8L141.94 88.41H139.83L139.51 88.73ZM144.666 87.69H145.106L146.056 88.26L146.606 87.69H148.666L149.186 88.45L148.586 88.86L148.286 88.41H146.916L146.476 88.88V92.28H147.886V93H144.666V92.28H145.676V88.98L145.286 88.41H144.666V87.69ZM151.522 87.69H154.352L155.152 88.89V92.17L154.352 93H151.532L150.722 91.8V88.52L151.522 87.69ZM151.512 91.7L151.912 92.28H154.032L154.332 91.96V88.98L153.952 88.41H151.822L151.512 88.74V91.7ZM157.108 87.5H158.518L159.318 88.7V92.28H161.128V93H156.708V92.28H158.518V88.8L158.138 88.23H157.108V87.5ZM158.418 86.19H159.418V85.19H158.418V86.19ZM166.334 85.51H167.144V93H166.334V92.52L165.534 93H163.544L162.714 91.79V88.53L163.524 87.68H165.524L166.334 88.16V85.51ZM163.524 91.69L163.904 92.27H166.044L166.334 91.97V88.98L165.954 88.41H163.834L163.524 88.73V91.69ZM169.56 87.69H172.32L172.84 88.46L172.35 88.98L171.95 88.39H169.91L169.6 88.66V89.42L169.98 89.96H172.34L173.02 90.98V92.25L172.34 93H169.2L168.8 92.38L169.29 91.87L169.56 92.28H172.01L172.22 92.04V91.1L171.93 90.69H169.56L168.8 89.54V88.43L169.56 87.69ZM181.502 87.69H184.332L185.132 88.89V92.17L184.332 93H181.512L180.702 91.8V88.52L181.502 87.69ZM181.492 91.7L181.892 92.28H184.012L184.312 91.96V88.98L183.932 88.41H181.802L181.492 88.74V91.7ZM186.688 87.69H187.488V88.17L188.298 87.69H190.308L191.118 88.87V93H190.308V88.97L189.928 88.41H187.798L187.488 88.73V93H186.688V87.69ZM192.675 85.52H194.175L194.985 86V91.71L195.365 92.28H197.105L197.095 93H194.985L194.175 91.81V86.24H192.675V85.52ZM202.291 87.68H203.101V93.48L201.481 95.17H198.681V94.44H201.151L202.291 93.27V93H199.681L198.681 91.52V87.68H199.481V91.42L200.071 92.27H202.291V87.68ZM211.483 87.69H214.293L215.003 88.75L214.493 89.28L213.903 88.41H211.793L211.483 88.73V91.7L211.873 92.28H213.983L214.573 91.67L214.983 92.28L214.293 93H211.493L210.683 91.8V88.52L211.483 87.69ZM217.479 87.69H220.309L221.109 88.89V92.17L220.309 93H217.489L216.679 91.8V88.52L217.479 87.69ZM217.469 91.7L217.869 92.28H219.989L220.289 91.96V88.98L219.909 88.41H217.779L217.469 88.74V91.7ZM222.465 87.69H223.265V88.17L224.065 87.69H224.485L224.945 88.38L226.095 87.69H226.485L227.295 88.88V93H226.485V88.98L226.105 88.41H225.595L225.295 88.74V90.23H224.485V88.98L224.105 88.41H223.575L223.265 88.74V93H222.465V87.69ZM229.451 87.69H232.251L233.081 88.88L231.431 90.58H229.451V91.7L229.841 92.28H231.961L232.521 91.73L232.961 92.28L232.261 93H229.461L228.651 91.8V88.52L229.451 87.69ZM229.451 88.73V89.86H231.131L232.141 88.8L231.881 88.41H229.771L229.451 88.73ZM241.443 87.69H244.243L245.073 88.88L243.423 90.58H241.443V91.7L241.833 92.28H243.953L244.513 91.73L244.953 92.28L244.253 93H241.453L240.643 91.8V88.52L241.443 87.69ZM241.443 88.73V89.86H243.123L244.133 88.8L243.873 88.41H241.763L241.443 88.73ZM250.269 87.68H251.079V90.74L248.899 93H248.199L246.649 90.7V87.68H247.449V90.59L248.589 92.29L250.269 90.54V87.68ZM253.435 87.69H256.235L257.065 88.88L255.415 90.58H253.435V91.7L253.825 92.28H255.945L256.505 91.73L256.945 92.28L256.245 93H253.445L252.635 91.8V88.52L253.435 87.69ZM253.435 88.73V89.86H255.115L256.125 88.8L255.865 88.41H253.755L253.435 88.73ZM258.592 87.69H259.032L259.982 88.26L260.532 87.69H262.592L263.112 88.45L262.512 88.86L262.212 88.41H260.842L260.402 88.88V92.28H261.812V93H258.592V92.28H259.602V88.98L259.212 88.41H258.592V87.69ZM268.248 87.68H269.058V93.48L267.438 95.17H264.638V94.44H267.108L268.248 93.27V93H265.638L264.638 91.52V87.68H265.438V91.42L266.028 92.27H268.248V87.68ZM31.6 99H34.45L35.22 100.15V101.2L31.58 104.95V105.28H35.22V106H30.78V104.74L34.7 100.68L34.06 99.72H31.9L31.19 100.43L30.79 99.83L31.6 99ZM37.5961 99H40.4161L41.2061 100.19V105.17L40.4161 106H37.5961L36.7861 104.8V99.83L37.5961 99ZM37.5861 100.05V103.59L40.3961 100.68V100.3L40.0061 99.72H37.8961L37.5861 100.05ZM37.5861 104.7L37.9761 105.28H40.0961L40.3961 104.95V101.71L37.5861 104.63V104.7ZM44.2922 104.67H45.6922V107.29L44.8222 108.17L44.4122 107.54L44.8922 107.04V106H44.2922V104.67ZM49.5883 99H52.4083L53.1983 100.19V105.17L52.4083 106H49.5883L48.7783 104.8V99.83L49.5883 99ZM49.5783 100.05V103.59L52.3883 100.68V100.3L51.9983 99.72H49.8883L49.5783 100.05ZM49.5783 104.7L49.9683 105.28H52.0883L52.3883 104.95V101.71L49.5783 104.63V104.7ZM55.5844 99H58.4044L59.1944 100.19V105.17L58.4044 106H55.5844L54.7744 104.8V99.83L55.5844 99ZM55.5744 100.05V103.59L58.3844 100.68V100.3L57.9944 99.72H55.8844L55.5744 100.05ZM55.5744 104.7L55.9644 105.28H58.0844L58.3844 104.95V101.71L55.5744 104.63V104.7ZM61.5805 99H64.4005L65.1905 100.19V105.17L64.4005 106H61.5805L60.7705 104.8V99.83L61.5805 99ZM61.5705 100.05V103.59L64.3805 100.68V100.3L63.9905 99.72H61.8805L61.5705 100.05ZM61.5705 104.7L61.9605 105.28H64.0805L64.3805 104.95V101.71L61.5705 104.63V104.7ZM76.3727 100.68H77.1827V106.48L75.5627 108.17H72.7627V107.44H75.2327L76.3727 106.27V106H73.7627L72.7627 104.52V100.68H73.5627V104.42L74.1527 105.27H76.3727V100.68ZM79.5488 100.69H82.3488L83.1788 101.88L81.5288 103.58H79.5488V104.7L79.9388 105.28H82.0588L82.6188 104.73L83.0588 105.28L82.3588 106H79.5588L78.7488 104.8V101.52L79.5488 100.69ZM79.5488 101.73V102.86H81.2288L82.2388 101.8L81.9788 101.41H79.8688L79.5488 101.73ZM85.4948 100.47H88.6348L89.2648 101.4V106H88.4248V105.49L87.5848 106H85.4948L84.6548 104.75V104.35L86.2148 102.73H88.4248V101.21H85.4948V100.47ZM85.4948 104.65L85.8848 105.24H88.4248V103.49H86.5448L85.4948 104.57V104.65ZM90.7009 100.69H91.1409L92.0909 101.26L92.6409 100.69H94.7009L95.2209 101.45L94.6209 101.86L94.3209 101.41H92.9509L92.5109 101.88V105.28H93.9209V106H90.7009V105.28H91.7109V101.98L91.3209 101.41H90.7009V100.69ZM97.607 100.69H100.367L100.887 101.46L100.397 101.98L99.997 101.39H97.957L97.647 101.66V102.42L98.027 102.96H100.387L101.067 103.98V105.25L100.387 106H97.247L96.847 105.38L97.337 104.87L97.607 105.28H100.057L100.267 105.04V104.1L99.977 103.69H97.607L96.847 102.54V101.43L97.607 100.69ZM109.549 100.69H112.379L113.179 101.89V105.17L112.379 106H109.559L108.749 104.8V101.52L109.549 100.69ZM109.539 104.7L109.939 105.28H112.059L112.359 104.96V101.98L111.979 101.41H109.849L109.539 101.74V104.7ZM114.685 100.69H115.125L116.075 101.26L116.625 100.69H118.685L119.205 101.45L118.605 101.86L118.305 101.41H116.935L116.495 101.88V105.28H117.905V106H114.685V105.28H115.695V101.98L115.305 101.41H114.685V100.69ZM127.588 100.69H130.348L130.868 101.46L130.378 101.98L129.978 101.39H127.938L127.628 101.66V102.42L128.008 102.96H130.368L131.048 103.98V105.25L130.368 106H127.228L126.828 105.38L127.318 104.87L127.588 105.28H130.038L130.248 105.04V104.1L129.958 103.69H127.588L126.828 102.54V101.43L127.588 100.69ZM133.534 100.69H136.364L137.164 101.89V105.17L136.364 106H133.544L132.734 104.8V101.52L133.534 100.69ZM133.524 104.7L133.924 105.28H136.044L136.344 104.96V101.98L135.964 101.41H133.834L133.524 101.74V104.7ZM140.23 104.67H141.63V107.29L140.76 108.17L140.35 107.54L140.83 107.04V106H140.23V104.67ZM150.722 98.52H151.522V101.17L152.322 100.68H154.342L155.162 101.9V105.16L154.342 106H152.342L151.522 105.52V106H150.722V98.52ZM151.522 101.74V105.27H154.052L154.352 104.95V101.99L153.962 101.41H151.842L151.522 101.74ZM160.318 100.69H161.128V106H160.338V105.51L159.518 106H157.518L156.708 104.8V100.69H157.508V104.7L157.898 105.27H160.028L160.318 104.96V100.69ZM163.704 98.52H164.504V100.68H166.124V101.41H164.504V104.7L164.894 105.27H165.904L166.504 104.67L166.914 105.27L166.234 106H164.504L163.704 104.82V101.41H162.914V100.68H163.704V98.52ZM175.506 100.69H178.336L179.136 101.89V105.17L178.336 106H175.516L174.706 104.8V101.52L175.506 100.69ZM175.496 104.7L175.896 105.28H178.016L178.316 104.96V101.98L177.936 101.41H175.806L175.496 101.74V104.7ZM180.692 100.69H181.492V101.17L182.302 100.69H184.312L185.122 101.87V106H184.312V101.97L183.932 101.41H181.802L181.492 101.73V106H180.692V100.69ZM186.678 98.52H188.178L188.988 99V104.71L189.368 105.28H191.108L191.098 106H188.988L188.178 104.81V99.24H186.678V98.52ZM196.295 100.68H197.105V106.48L195.485 108.17H192.685V107.44H195.155L196.295 106.27V106H193.685L192.685 104.52V100.68H193.485V104.42L194.075 105.27H196.295V100.68ZM205.077 100.5H206.487L207.287 101.7V105.28H209.097V106H204.677V105.28H206.487V101.8L206.107 101.23H205.077V100.5ZM206.387 99.19H207.387V98.19H206.387V99.19ZM210.673 100.69H211.473V101.17L212.283 100.69H214.293L215.103 101.87V106H214.293V101.97L213.913 101.41H211.783L211.473 101.73V106H210.673V100.69ZM223.665 98.52H224.465V100.68H226.085V101.41H224.465V104.7L224.855 105.27H225.865L226.465 104.67L226.875 105.27L226.195 106H224.465L223.665 104.82V101.41H222.875V100.68H223.665V98.52ZM228.661 98.51H229.461V101.17L230.261 100.69H232.261L233.091 101.87V106H232.281V101.97L231.901 101.41H229.791L229.461 101.72V106H228.661V98.51ZM235.447 100.69H238.247L239.077 101.88L237.427 103.58H235.447V104.7L235.837 105.28H237.957L238.517 104.73L238.957 105.28L238.257 106H235.457L234.647 104.8V101.52L235.447 100.69ZM235.447 101.73V102.86H237.127L238.137 101.8L237.877 101.41H235.767L235.447 101.73ZM246.639 98.52H248.139L248.949 99V104.71L249.329 105.28H251.069L251.059 106H248.949L248.139 104.81V99.24H246.639V98.52ZM253.385 100.47H256.525L257.155 101.4V106H256.315V105.49L255.475 106H253.385L252.545 104.75V104.35L254.105 102.73H256.315V101.21H253.385V100.47ZM253.385 104.65L253.775 105.24H256.315V103.49H254.435L253.385 104.57V104.65ZM259.502 100.69H262.262L262.782 101.46L262.292 101.98L261.892 101.39H259.852L259.542 101.66V102.42L259.922 102.96H262.282L262.962 103.98V105.25L262.282 106H259.142L258.742 105.38L259.232 104.87L259.502 105.28H261.952L262.162 105.04V104.1L261.872 103.69H259.502L258.742 102.54V101.43L259.502 100.69ZM265.638 98.52H266.438V100.68H268.058V101.41H266.438V104.7L266.828 105.27H267.838L268.438 104.67L268.848 105.27L268.168 106H266.438L265.638 104.82V101.41H264.848V100.68H265.638V98.52ZM278.34 99H280.56L281.05 99.69L280.54 100.21L280.21 99.72H278.67L278.23 100.17V101.9H280.21V102.62H278.23V106H277.43V102.62H276.63V101.9H277.43V99.94L278.34 99ZM283.416 100.69H286.216L287.046 101.88L285.396 103.58H283.416V104.7L283.806 105.28H285.926L286.486 104.73L286.926 105.28L286.226 106H283.426L282.616 104.8V101.52L283.416 100.69ZM283.416 101.73V102.86H285.096L286.106 101.8L285.846 101.41H283.736L283.416 101.73ZM292.852 100.69H293.652V104.56L292.262 106H291.532L290.932 105.09L290.042 106H289.332L288.022 104.06V100.69H288.822V103.96L289.702 105.27H289.752L290.432 104.56V100.69H291.242V104.27L291.922 105.27H291.952L292.852 104.35V100.69ZM34.42 111.51H35.23V119H34.42V118.52L33.62 119H31.63L30.8 117.79V114.53L31.61 113.68H33.61L34.42 114.16V111.51ZM31.61 117.69L31.99 118.27H34.13L34.42 117.97V114.98L34.04 114.41H31.92L31.61 114.73V117.69ZM37.5761 113.69H40.3761L41.2061 114.88L39.5561 116.58H37.5761V117.7L37.9661 118.28H40.0861L40.6461 117.73L41.0861 118.28L40.3861 119H37.5861L36.7761 117.8V114.52L37.5761 113.69ZM37.5761 114.73V115.86H39.2561L40.2661 114.8L40.0061 114.41H37.8961L37.5761 114.73ZM43.5922 113.69H46.4022L47.1122 114.75L46.6022 115.28L46.0122 114.41H43.9022L43.5922 114.73V117.7L43.9822 118.28H46.0922L46.6822 117.67L47.0922 118.28L46.4022 119H43.6022L42.7922 117.8V114.52L43.5922 113.69ZM49.5183 113.47H52.6583L53.2883 114.4V119H52.4483V118.49L51.6083 119H49.5183L48.6783 117.75V117.35L50.2383 115.73H52.4483V114.21H49.5183V113.47ZM49.5183 117.65L49.9083 118.24H52.4483V116.49H50.5683L49.5183 117.57V117.65ZM58.4044 111.51H59.2144V119H58.4044V118.52L57.6044 119H55.6144L54.7844 117.79V114.53L55.5944 113.68H57.5944L58.4044 114.16V111.51ZM55.5944 117.69L55.9744 118.27H58.1144L58.4044 117.97V114.98L58.0244 114.41H55.9044L55.5944 114.73V117.69ZM61.5605 113.69H64.3605L65.1905 114.88L63.5405 116.58H61.5605V117.7L61.9505 118.28H64.0705L64.6305 117.73L65.0705 118.28L64.3705 119H61.5705L60.7605 117.8V114.52L61.5605 113.69ZM61.5605 114.73V115.86H63.2405L64.2505 114.8L63.9905 114.41H61.8805L61.5605 114.73ZM67.6266 113.69H70.3866L70.9066 114.46L70.4166 114.98L70.0166 114.39H67.9766L67.6666 114.66V115.42L68.0466 115.96H70.4066L71.0866 116.98V118.25L70.4066 119H67.2666L66.8666 118.38L67.3566 117.87L67.6266 118.28H70.0766L70.2866 118.04V117.1L69.9966 116.69H67.6266L66.8666 115.54V114.43L67.6266 113.69ZM78.7588 111.51H79.5588V114.17L80.3588 113.69H82.3588L83.1888 114.87V119H82.3788V114.97L81.9988 114.41H79.8888L79.5588 114.72V119H78.7588V111.51ZM85.4948 113.47H88.6348L89.2648 114.4V119H88.4248V118.49L87.5848 119H85.4948L84.6548 117.75V117.35L86.2148 115.73H88.4248V114.21H85.4948V113.47ZM85.4948 117.65L85.8848 118.24H88.4248V116.49H86.5448L85.4948 117.57V117.65ZM94.3709 113.68H95.1809V116.74L93.0009 119H92.3009L90.7509 116.7V113.68H91.5509V116.59L92.6909 118.29L94.3709 116.54V113.68ZM97.537 113.69H100.337L101.167 114.88L99.517 116.58H97.537V117.7L97.927 118.28H100.047L100.607 117.73L101.047 118.28L100.347 119H97.547L96.737 117.8V114.52L97.537 113.69ZM97.537 114.73V115.86H99.217L100.227 114.8L99.967 114.41H97.857L97.537 114.73ZM112.969 113.69H113.769V117.56L112.379 119H111.649L111.049 118.09L110.159 119H109.449L108.139 117.06V113.69H108.939V116.96L109.819 118.27H109.869L110.549 117.56V113.69H111.359V117.27L112.039 118.27H112.069L112.969 117.35V113.69ZM115.525 113.69H118.325L119.155 114.88L117.505 116.58H115.525V117.7L115.915 118.28H118.035L118.595 117.73L119.035 118.28L118.335 119H115.535L114.725 117.8V114.52L115.525 113.69ZM115.525 114.73V115.86H117.205L118.215 114.8L117.955 114.41H115.845L115.525 114.73ZM130.358 111.51H131.168V119H130.358V118.52L129.558 119H127.568L126.738 117.79V114.53L127.548 113.68H129.548L130.358 114.16V111.51ZM127.548 117.69L127.928 118.27H130.068L130.358 117.97V114.98L129.978 114.41H127.858L127.548 114.73V117.69ZM133.514 113.69H136.314L137.144 114.88L135.494 116.58H133.514V117.7L133.904 118.28H136.024L136.584 117.73L137.024 118.28L136.324 119H133.524L132.714 117.8V114.52L133.514 113.69ZM133.514 114.73V115.86H135.194L136.204 114.8L135.944 114.41H133.834L133.514 114.73ZM142.34 113.68H143.15V116.74L140.97 119H140.27L138.72 116.7V113.68H139.52V116.59L140.66 118.29L142.34 116.54V113.68ZM145.506 113.69H148.306L149.136 114.88L147.486 116.58H145.506V117.7L145.896 118.28H148.016L148.576 117.73L149.016 118.28L148.316 119H145.516L144.706 117.8V114.52L145.506 113.69ZM145.506 114.73V115.86H147.186L148.196 114.8L147.936 114.41H145.826L145.506 114.73ZM150.702 111.52H152.202L153.012 112V117.71L153.392 118.28H155.132L155.122 119H153.012L152.202 117.81V112.24H150.702V111.52ZM157.518 113.69H160.348L161.148 114.89V118.17L160.348 119H157.528L156.718 117.8V114.52L157.518 113.69ZM157.508 117.7L157.908 118.28H160.028L160.328 117.96V114.98L159.948 114.41H157.818L157.508 114.74V117.7ZM164.304 113.69H166.334L167.124 114.89V118.17L166.324 119H164.314L163.504 118.52V121.16H162.704V113.69H163.504V114.18L164.304 113.69ZM163.504 117.7L163.904 118.28H166.014L166.314 117.97V114.99L165.934 114.42H163.814L163.504 114.73V117.7ZM169.49 113.69H172.29L173.12 114.88L171.47 116.58H169.49V117.7L169.88 118.28H172L172.56 117.73L173 118.28L172.3 119H169.5L168.69 117.8V114.52L169.49 113.69ZM169.49 114.73V115.86H171.17L172.18 114.8L171.92 114.41H169.81L169.49 114.73ZM178.326 111.51H179.136V119H178.326V118.52L177.526 119H175.536L174.706 117.79V114.53L175.516 113.68H177.516L178.326 114.16V111.51ZM175.516 117.69L175.896 118.27H178.036L178.326 117.97V114.98L177.946 114.41H175.826L175.516 114.73V117.69ZM187.688 111.52H188.488V113.68H190.108V114.41H188.488V117.7L188.878 118.27H189.888L190.488 117.67L190.898 118.27L190.218 119H188.488L187.688 117.82V114.41H186.898V113.68H187.688V111.52ZM192.685 111.51H193.485V114.17L194.285 113.69H196.285L197.115 114.87V119H196.305V114.97L195.925 114.41H193.815L193.485 114.72V119H192.685V111.51ZM199.471 113.69H202.271L203.101 114.88L201.451 116.58H199.471V117.7L199.861 118.28H201.981L202.541 117.73L202.981 118.28L202.281 119H199.481L198.671 117.8V114.52L199.471 113.69ZM199.471 114.73V115.86H201.151L202.161 114.8L201.901 114.41H199.791L199.471 114.73ZM211.673 111.52H212.473V113.68H214.093V114.41H212.473V117.7L212.863 118.27H213.873L214.473 117.67L214.883 118.27L214.203 119H212.473L211.673 117.82V114.41H210.883V113.68H211.673V111.52ZM217.459 113.69H220.259L221.089 114.88L219.439 116.58H217.459V117.7L217.849 118.28H219.969L220.529 117.73L220.969 118.28L220.269 119H217.469L216.659 117.8V114.52L217.459 113.69ZM217.459 114.73V115.86H219.139L220.149 114.8L219.889 114.41H217.779L217.459 114.73ZM223.475 113.69H226.285L226.995 114.75L226.485 115.28L225.895 114.41H223.785L223.475 114.73V117.7L223.865 118.28H225.975L226.565 117.67L226.975 118.28L226.285 119H223.485L222.675 117.8V114.52L223.475 113.69ZM228.661 111.51H229.461V114.17L230.261 113.69H232.261L233.091 114.87V119H232.281V114.97L231.901 114.41H229.791L229.461 114.72V119H228.661V111.51ZM234.657 113.69H235.457V114.17L236.267 113.69H238.277L239.087 114.87V119H238.277V114.97L237.897 114.41H235.767L235.457 114.73V119H234.657V113.69ZM241.463 113.69H244.293L245.093 114.89V118.17L244.293 119H241.473L240.663 117.8V114.52L241.463 113.69ZM241.453 117.7L241.853 118.28H243.973L244.273 117.96V114.98L243.893 114.41H241.763L241.453 114.74V117.7ZM246.639 111.52H248.139L248.949 112V117.71L249.329 118.28H251.069L251.059 119H248.949L248.139 117.81V112.24H246.639V111.52ZM253.455 113.69H256.285L257.085 114.89V118.17L256.285 119H253.465L252.655 117.8V114.52L253.455 113.69ZM253.445 117.7L253.845 118.28H255.965L256.265 117.96V114.98L255.885 114.41H253.755L253.445 114.74V117.7ZM260.092 118.41L259.522 118.96V119.76L259.922 120.36H261.412L262.252 119.51V118.71L262.062 118.41H260.092ZM259.522 114.67V116.21H261.442L262.252 115.71V114.75L261.872 114.2H259.952L259.522 114.67ZM261.462 116.95H259.922L259.552 117.33L259.762 117.67H262.452L263.062 118.62V119.68L261.712 121.09H259.552L258.712 119.84V118.79L259.282 118.22L258.632 117.25L259.152 116.73L258.712 116.46V114.45L259.652 113.47H261.452L262.252 113.96V113.47H263.062V115.97L261.462 116.95ZM268.248 113.68H269.058V119.48L267.438 121.17H264.638V120.44H267.108L268.248 119.27V119H265.638L264.638 117.52V113.68H265.438V117.42L266.028 118.27H268.248V113.68ZM277.63 111.52H278.43V113.68H280.05V114.41H278.43V117.7L278.82 118.27H279.83L280.43 117.67L280.84 118.27L280.16 119H278.43L277.63 117.82V114.41H276.84V113.68H277.63V111.52ZM283.436 113.69H286.266L287.066 114.89V118.17L286.266 119H283.446L282.636 117.8V114.52L283.436 113.69ZM283.426 117.7L283.826 118.28H285.946L286.246 117.96V114.98L285.866 114.41H283.736L283.426 114.74V117.7ZM31.53 126.47H34.67L35.3 127.4V132H34.46V131.49L33.62 132H31.53L30.69 130.75V130.35L32.25 128.73H34.46V127.21H31.53V126.47ZM31.53 130.65L31.92 131.24H34.46V129.49H32.58L31.53 130.57V130.65ZM37.5961 126.69H40.4061L41.1161 127.75L40.6061 128.28L40.0161 127.41H37.9061L37.5961 127.73V130.7L37.9861 131.28H40.0961L40.6861 130.67L41.0961 131.28L40.4061 132H37.6061L36.7961 130.8V127.52L37.5961 126.69ZM43.5922 126.69H46.4022L47.1122 127.75L46.6022 128.28L46.0122 127.41H43.9022L43.5922 127.73V130.7L43.9822 131.28H46.0922L46.6822 130.67L47.0922 131.28L46.4022 132H43.6022L42.7922 130.8V127.52L43.5922 126.69ZM52.3883 126.69H53.1983V132H52.4083V131.51L51.5883 132H49.5883L48.7783 130.8V126.69H49.5783V130.7L49.9683 131.27H52.0983L52.3883 130.96V126.69ZM54.7244 126.69H55.1644L56.1144 127.26L56.6644 126.69H58.7244L59.2444 127.45L58.6444 127.86L58.3444 127.41H56.9744L56.5344 127.88V131.28H57.9444V132H54.7244V131.28H55.7344V127.98L55.3444 127.41H54.7244V126.69ZM61.5105 126.47H64.6505L65.2805 127.4V132H64.4405V131.49L63.6005 132H61.5105L60.6705 130.75V130.35L62.2305 128.73H64.4405V127.21H61.5105V126.47ZM61.5105 130.65L61.9005 131.24H64.4405V129.49H62.5605L61.5105 130.57V130.65ZM67.7666 124.52H68.5666V126.68H70.1866V127.41H68.5666V130.7L68.9566 131.27H69.9666L70.5666 130.67L70.9766 131.27L70.2966 132H68.5666L67.7666 130.82V127.41H66.9766V126.68H67.7666V124.52ZM73.5527 126.69H76.3527L77.1827 127.88L75.5327 129.58H73.5527V130.7L73.9427 131.28H76.0627L76.6227 130.73L77.0627 131.28L76.3627 132H73.5627L72.7527 130.8V127.52L73.5527 126.69ZM73.5527 127.73V128.86H75.2327L76.2427 127.8L75.9827 127.41H73.8727L73.5527 127.73ZM78.7488 124.52H80.2488L81.0588 125V130.71L81.4388 131.28H83.1788L83.1688 132H81.0588L80.2488 130.81V125.24H78.7488V124.52ZM88.3648 126.68H89.1748V132.48L87.5548 134.17H84.7548V133.44H87.2248L88.3648 132.27V132H85.7548L84.7548 130.52V126.68H85.5548V130.42L86.1448 131.27H88.3648V126.68ZM97.747 124.52H98.547V126.68H100.167V127.41H98.547V130.7L98.937 131.27H99.947L100.547 130.67L100.957 131.27L100.277 132H98.547L97.747 130.82V127.41H96.957V126.68H97.747V124.52ZM102.693 126.69H103.133L104.083 127.26L104.633 126.69H106.693L107.213 127.45L106.613 127.86L106.313 127.41H104.943L104.503 127.88V131.28H105.913V132H102.693V131.28H103.703V127.98L103.313 127.41H102.693V126.69ZM109.479 126.47H112.619L113.249 127.4V132H112.409V131.49L111.569 132H109.479L108.639 130.75V130.35L110.199 128.73H112.409V127.21H109.479V126.47ZM109.479 130.65L109.869 131.24H112.409V129.49H110.529L109.479 130.57V130.65ZM115.545 126.69H118.355L119.065 127.75L118.555 128.28L117.965 127.41H115.855L115.545 127.73V130.7L115.935 131.28H118.045L118.635 130.67L119.045 131.28L118.355 132H115.555L114.745 130.8V127.52L115.545 126.69ZM120.731 124.52H121.531V128.56L123.641 126.38H124.641L123.131 127.93L125.161 130.93V132H124.351V131.02L122.611 128.47L121.531 129.58V132H120.731V124.52ZM133.464 126.47H136.604L137.234 127.4V132H136.394V131.49L135.554 132H133.464L132.624 130.75V130.35L134.184 128.73H136.394V127.21H133.464V126.47ZM133.464 130.65L133.854 131.24H136.394V129.49H134.514L133.464 130.57V130.65ZM139.58 126.69H142.34L142.86 127.46L142.37 127.98L141.97 127.39H139.93L139.62 127.66V128.42L140 128.96H142.36L143.04 129.98V131.25L142.36 132H139.22L138.82 131.38L139.31 130.87L139.58 131.28H142.03L142.24 131.04V130.1L141.95 129.69H139.58L138.82 128.54V127.43L139.58 126.69ZM145.716 124.52H146.516V126.68H148.136V127.41H146.516V130.7L146.906 131.27H147.916L148.516 130.67L148.926 131.27L148.246 132H146.516L145.716 130.82V127.41H144.926V126.68H145.716V124.52ZM151.502 126.69H154.302L155.132 127.88L153.482 129.58H151.502V130.7L151.892 131.28H154.012L154.572 130.73L155.012 131.28L154.312 132H151.512L150.702 130.8V127.52L151.502 126.69ZM151.502 127.73V128.86H153.182L154.192 127.8L153.932 127.41H151.822L151.502 127.73ZM156.658 126.69H157.098L158.048 127.26L158.598 126.69H160.658L161.178 127.45L160.578 127.86L160.278 127.41H158.908L158.468 127.88V131.28H159.878V132H156.658V131.28H157.668V127.98L157.278 127.41H156.658V126.69ZM163.514 126.69H166.344L167.144 127.89V131.17L166.344 132H163.524L162.714 130.8V127.52L163.514 126.69ZM163.504 130.7L163.904 131.28H166.024L166.324 130.96V127.98L165.944 127.41H163.814L163.504 127.74V130.7ZM169.1 126.5H170.51L171.31 127.7V131.28H173.12V132H168.7V131.28H170.51V127.8L170.13 127.23H169.1V126.5ZM170.41 125.19H171.41V124.19H170.41V125.19ZM178.326 124.51H179.136V132H178.326V131.52L177.526 132H175.536L174.706 130.79V127.53L175.516 126.68H177.516L178.326 127.16V124.51ZM175.516 130.69L175.896 131.27H178.036L178.326 130.97V127.98L177.946 127.41H175.826L175.516 127.73V130.69ZM181.552 126.69H184.312L184.832 127.46L184.342 127.98L183.942 127.39H181.902L181.592 127.66V128.42L181.972 128.96H184.332L185.012 129.98V131.25L184.332 132H181.192L180.792 131.38L181.282 130.87L181.552 131.28H184.002L184.212 131.04V130.1L183.922 129.69H181.552L180.792 128.54V127.43L181.552 126.69ZM193.425 126.47H196.565L197.195 127.4V132H196.355V131.49L195.515 132H193.425L192.585 130.75V130.35L194.145 128.73H196.355V127.21H193.425V126.47ZM193.425 130.65L193.815 131.24H196.355V129.49H194.475L193.425 130.57V130.65ZM198.681 126.69H199.481V127.17L200.291 126.69H202.301L203.111 127.87V132H202.301V127.97L201.921 127.41H199.791L199.481 127.73V132H198.681V126.69ZM208.307 124.51H209.117V132H208.307V131.52L207.507 132H205.517L204.687 130.79V127.53L205.497 126.68H207.497L208.307 127.16V124.51ZM205.497 130.69L205.877 131.27H208.017L208.307 130.97V127.98L207.927 127.41H205.807L205.497 127.73V130.69ZM220.299 124.51H221.109V132H220.299V131.52L219.499 132H217.509L216.679 130.79V127.53L217.489 126.68H219.489L220.299 127.16V124.51ZM217.489 130.69L217.869 131.27H220.009L220.299 130.97V127.98L219.919 127.41H217.799L217.489 127.73V130.69ZM223.455 126.69H226.255L227.085 127.88L225.435 129.58H223.455V130.7L223.845 131.28H225.965L226.525 130.73L226.965 131.28L226.265 132H223.465L222.655 130.8V127.52L223.455 126.69ZM223.455 127.73V128.86H225.135L226.145 127.8L225.885 127.41H223.775L223.455 127.73ZM229.521 126.69H232.281L232.801 127.46L232.311 127.98L231.911 127.39H229.871L229.561 127.66V128.42L229.941 128.96H232.301L232.981 129.98V131.25L232.301 132H229.161L228.761 131.38L229.251 130.87L229.521 131.28H231.971L232.181 131.04V130.1L231.891 129.69H229.521L228.761 128.54V127.43L229.521 126.69ZM235.657 124.52H236.457V126.68H238.077V127.41H236.457V130.7L236.847 131.27H237.857L238.457 130.67L238.867 131.27L238.187 132H236.457L235.657 130.82V127.41H234.867V126.68H235.657V124.52ZM240.603 126.69H241.043L241.993 127.26L242.543 126.69H244.603L245.123 127.45L244.523 127.86L244.223 127.41H242.853L242.413 127.88V131.28H243.823V132H240.603V131.28H241.613V127.98L241.223 127.41H240.603V126.69ZM247.459 126.69H250.289L251.089 127.89V131.17L250.289 132H247.469L246.659 130.8V127.52L247.459 126.69ZM247.449 130.7L247.849 131.28H249.969L250.269 130.96V127.98L249.889 127.41H247.759L247.449 127.74V130.7ZM256.255 126.68H257.065V132.48L255.445 134.17H252.645V133.44H255.115L256.255 132.27V132H253.645L252.645 130.52V126.68H253.445V130.42L254.035 131.27H256.255V126.68ZM265.638 124.52H266.438V126.68H268.058V127.41H266.438V130.7L266.828 131.27H267.838L268.438 130.67L268.848 131.27L268.168 132H266.438L265.638 130.82V127.41H264.848V126.68H265.638V124.52ZM270.634 124.51H271.434V127.17L272.234 126.69H274.234L275.064 127.87V132H274.254V127.97L273.874 127.41H271.764L271.434 127.72V132H270.634V124.51ZM277.42 126.69H280.22L281.05 127.88L279.4 129.58H277.42V130.7L277.81 131.28H279.93L280.49 130.73L280.93 131.28L280.23 132H277.43L276.62 130.8V127.52L277.42 126.69ZM277.42 127.73V128.86H279.1L280.11 127.8L279.85 127.41H277.74L277.42 127.73ZM282.426 126.69H283.226V127.17L284.026 126.69H284.446L284.906 127.38L286.056 126.69H286.446L287.256 127.88V132H286.446V127.98L286.066 127.41H285.556L285.256 127.74V129.23H284.446V127.98L284.066 127.41H283.536L283.226 127.74V132H282.426V126.69ZM290.132 132V130.6H291.532V132H290.132ZM30.39 151H35.61V151.72H32.63L33.41 152.2V158H32.6V152.3L32.22 151.72H30.39V151ZM36.7861 150.51H37.5861V153.17L38.3861 152.69H40.3861L41.2161 153.87V158H40.4061V153.97L40.0261 153.41H37.9161L37.5861 153.72V158H36.7861V150.51ZM43.1822 152.5H44.5922L45.3922 153.7V157.28H47.2022V158H42.7822V157.28H44.5922V153.8L44.2122 153.23H43.1822V152.5ZM44.4922 151.19H45.4922V150.19H44.4922V151.19ZM49.6383 152.69H52.3983L52.9183 153.46L52.4283 153.98L52.0283 153.39H49.9883L49.6783 153.66V154.42L50.0583 154.96H52.4183L53.0983 155.98V157.25L52.4183 158H49.2783L48.8783 157.38L49.3683 156.87L49.6383 157.28H52.0883L52.2983 157.04V156.1L52.0083 155.69H49.6383L48.8783 154.54V153.43L49.6383 152.69ZM64.3905 152.68H65.2005V155.74L63.0205 158H62.3205L60.7705 155.7V152.68H61.5705V155.59L62.7105 157.29L64.3905 155.54V152.68ZM67.1666 152.5H68.5766L69.3766 153.7V157.28H71.1866V158H66.7666V157.28H68.5766V153.8L68.1966 153.23H67.1666V152.5ZM68.4766 151.19H69.4766V150.19H68.4766V151.19ZM73.6227 152.69H76.3827L76.9027 153.46L76.4127 153.98L76.0127 153.39H73.9727L73.6627 153.66V154.42L74.0427 154.96H76.4027L77.0827 155.98V157.25L76.4027 158H73.2627L72.8627 157.38L73.3527 156.87L73.6227 157.28H76.0727L76.2827 157.04V156.1L75.9927 155.69H73.6227L72.8627 154.54V153.43L73.6227 152.69ZM82.3688 152.69H83.1788V158H82.3888V157.51L81.5688 158H79.5688L78.7588 156.8V152.69H79.5588V156.7L79.9488 157.27H82.0788L82.3688 156.96V152.69ZM85.4948 152.47H88.6348L89.2648 153.4V158H88.4248V157.49L87.5848 158H85.4948L84.6548 156.75V156.35L86.2148 154.73H88.4248V153.21H85.4948V152.47ZM85.4948 156.65L85.8848 157.24H88.4248V155.49H86.5448L85.4948 156.57V156.65ZM90.7409 150.52H92.2409L93.0509 151V156.71L93.4309 157.28H95.1709L95.1609 158H93.0509L92.2409 156.81V151.24H90.7409V150.52ZM97.147 152.5H98.557L99.357 153.7V157.28H101.167V158H96.747V157.28H98.557V153.8L98.177 153.23H97.147V152.5ZM98.457 151.19H99.457V150.19H98.457V151.19ZM102.743 152.69H107.163V153.75L103.753 157.28H107.163V158H102.743V157.28L106.353 153.53V153.41H102.743V152.69ZM109.479 152.47H112.619L113.249 153.4V158H112.409V157.49L111.569 158H109.479L108.639 156.75V156.35L110.199 154.73H112.409V153.21H109.479V152.47ZM109.479 156.65L109.869 157.24H112.409V155.49H110.529L109.479 156.57V156.65ZM115.735 150.52H116.535V152.68H118.155V153.41H116.535V156.7L116.925 157.27H117.935L118.535 156.67L118.945 157.27L118.265 158H116.535L115.735 156.82V153.41H114.945V152.68H115.735V150.52ZM121.131 152.5H122.541L123.341 153.7V157.28H125.151V158H120.731V157.28H122.541V153.8L122.161 153.23H121.131V152.5ZM122.441 151.19H123.441V150.19H122.441V151.19ZM127.538 152.69H130.368L131.168 153.89V157.17L130.368 158H127.548L126.738 156.8V153.52L127.538 152.69ZM127.528 156.7L127.928 157.28H130.048L130.348 156.96V153.98L129.968 153.41H127.838L127.528 153.74V156.7ZM132.724 152.69H133.524V153.17L134.334 152.69H136.344L137.154 153.87V158H136.344V153.97L135.964 153.41H133.834L133.524 153.73V158H132.724V152.69ZM146.426 151H148.646L149.136 151.69L148.626 152.21L148.296 151.72H146.756L146.316 152.17V153.9H148.296V154.62H146.316V158H145.516V154.62H144.716V153.9H145.516V151.94L146.426 151ZM150.662 152.69H151.102L152.052 153.26L152.602 152.69H154.662L155.182 153.45L154.582 153.86L154.282 153.41H152.912L152.472 153.88V157.28H153.882V158H150.662V157.28H151.672V153.98L151.282 153.41H150.662V152.69ZM157.518 152.69H160.348L161.148 153.89V157.17L160.348 158H157.528L156.718 156.8V153.52L157.518 152.69ZM157.508 156.7L157.908 157.28H160.028L160.328 156.96V153.98L159.948 153.41H157.818L157.508 153.74V156.7ZM162.504 152.69H163.304V153.17L164.104 152.69H164.524L164.984 153.38L166.134 152.69H166.524L167.334 153.88V158H166.524V153.98L166.144 153.41H165.634L165.334 153.74V155.23H164.524V153.98L164.144 153.41H163.614L163.304 153.74V158H162.504V152.69ZM174.686 151H175.486V154.37L176.276 153.9H177.506L178.316 154.37V151H179.126V158H178.316V155.18L177.936 154.63H175.786L175.486 154.93V158H174.686V151ZM181.432 152.47H184.572L185.202 153.4V158H184.362V157.49L183.522 158H181.432L180.592 156.75V156.35L182.152 154.73H184.362V153.21H181.432V152.47ZM181.432 156.65L181.822 157.24H184.362V155.49H182.482L181.432 156.57V156.65ZM186.638 152.69H187.078L188.028 153.26L188.578 152.69H190.638L191.158 153.45L190.558 153.86L190.258 153.41H188.888L188.448 153.88V157.28H189.858V158H186.638V157.28H187.648V153.98L187.258 153.41H186.638V152.69ZM193.545 152.69H196.305L196.825 153.46L196.335 153.98L195.935 153.39H193.895L193.585 153.66V154.42L193.965 154.96H196.325L197.005 155.98V157.25L196.325 158H193.185L192.785 157.38L193.275 156.87L193.545 157.28H195.995L196.205 157.04V156.1L195.915 155.69H193.545L192.785 154.54V153.43L193.545 152.69ZM198.681 150.51H199.481V153.17L200.281 152.69H202.281L203.111 153.87V158H202.301V153.97L201.921 153.41H199.811L199.481 153.72V158H198.681V150.51ZM205.077 152.5H206.487L207.287 153.7V157.28H209.097V158H204.677V157.28H206.487V153.8L206.107 153.23H205.077V152.5ZM206.387 151.19H207.387V150.19H206.387V151.19ZM211.673 150.52H212.473V152.68H214.093V153.41H212.473V156.7L212.863 157.27H213.873L214.473 156.67L214.883 157.27L214.203 158H212.473L211.673 156.82V153.41H210.883V152.68H211.673V150.52ZM217.409 152.47H220.549L221.179 153.4V158H220.339V157.49L219.499 158H217.409L216.569 156.75V156.35L218.129 154.73H220.339V153.21H217.409V152.47ZM217.409 156.65L217.799 157.24H220.339V155.49H218.459L217.409 156.57V156.65ZM31.76 164H34.57L35.23 165L34.72 165.54L34.19 164.72H32.06L31.75 165.05V169.7L32.14 170.28H34.25L34.85 169.68L35.25 170.28L34.57 171H31.75L30.95 169.8V164.83L31.76 164ZM36.7861 163.51H37.5861V166.17L38.3861 165.69H40.3861L41.2161 166.87V171H40.4061V166.97L40.0261 166.41H37.9161L37.5861 166.72V171H36.7861V163.51ZM43.5222 165.47H46.6622L47.2922 166.4V171H46.4522V170.49L45.6122 171H43.5222L42.6822 169.75V169.35L44.2422 167.73H46.4522V166.21H43.5222V165.47ZM43.5222 169.65L43.9122 170.24H46.4522V168.49H44.5722L43.5222 169.57V169.65ZM48.7783 163.52H49.5783V167.56L51.6883 165.38H52.6883L51.1783 166.93L53.2083 169.93V171H52.3983V170.02L50.6583 167.47L49.5783 168.58V171H48.7783V163.52ZM54.7244 165.69H55.1644L56.1144 166.26L56.6644 165.69H58.7244L59.2444 166.45L58.6444 166.86L58.3444 166.41H56.9744L56.5344 166.88V170.28H57.9444V171H54.7244V170.28H55.7344V166.98L55.3444 166.41H54.7244V165.69ZM61.5105 165.47H64.6505L65.2805 166.4V171H64.4405V170.49L63.6005 171H61.5105L60.6705 169.75V169.35L62.2305 167.73H64.4405V166.21H61.5105V165.47ZM61.5105 169.65L61.9005 170.24H64.4405V168.49H62.5605L61.5105 169.57V169.65ZM70.3866 165.68H71.1966V168.74L69.0166 171H68.3166L66.7666 168.7V165.68H67.5666V168.59L68.7066 170.29L70.3866 168.54V165.68ZM73.5027 165.47H76.6427L77.2727 166.4V171H76.4327V170.49L75.5927 171H73.5027L72.6627 169.75V169.35L74.2227 167.73H76.4327V166.21H73.5027V165.47ZM73.5027 169.65L73.8927 170.24H76.4327V168.49H74.5527L73.5027 169.57V169.65ZM82.3888 163.51H83.1988V171H82.3888V170.52L81.5888 171H79.5988L78.7688 169.79V166.53L79.5788 165.68H81.5788L82.3888 166.16V163.51ZM79.5788 169.69L79.9588 170.27H82.0988L82.3888 169.97V166.98L82.0088 166.41H79.8888L79.5788 166.73V169.69ZM84.7548 163.51H85.5548V166.17L86.3548 165.69H88.3548L89.1848 166.87V171H88.3748V166.97L87.9948 166.41H85.8848L85.5548 166.72V171H84.7548V163.51ZM91.4909 165.47H94.6309L95.2609 166.4V171H94.4209V170.49L93.5809 171H91.4909L90.6509 169.75V169.35L92.2109 167.73H94.4209V166.21H91.4909V165.47ZM91.4909 169.65L91.8809 170.24H94.4209V168.49H92.5409L91.4909 169.57V169.65ZM96.747 165.69H97.547V166.17L98.357 165.69H100.367L101.177 166.87V171H100.367V166.97L99.987 166.41H97.857L97.547 166.73V171H96.747V165.69ZM106.353 165.69H107.163V171H106.373V170.51L105.553 171H103.553L102.743 169.8V165.69H103.543V169.7L103.933 170.27H106.063L106.353 169.96V165.69ZM108.729 163.52H110.229L111.039 164V169.71L111.419 170.28H113.159L113.149 171H111.039L110.229 169.81V164.24H108.729V163.52ZM115.475 165.47H118.615L119.245 166.4V171H118.405V170.49L117.565 171H115.475L114.635 169.75V169.35L116.195 167.73H118.405V166.21H115.475V165.47ZM115.475 169.65L115.865 170.24H118.405V168.49H116.525L115.475 169.57V169.65ZM127.468 165.47H130.608L131.238 166.4V171H130.398V170.49L129.558 171H127.468L126.628 169.75V169.35L128.188 167.73H130.398V166.21H127.468V165.47ZM127.468 169.65L127.858 170.24H130.398V168.49H128.518L127.468 169.57V169.65ZM132.724 165.69H133.524V166.17L134.334 165.69H136.344L137.154 166.87V171H136.344V166.97L135.964 166.41H133.834L133.524 166.73V171H132.724V165.69ZM142.35 163.51H143.16V171H142.35V170.52L141.55 171H139.56L138.73 169.79V166.53L139.54 165.68H141.54L142.35 166.16V163.51ZM139.54 169.69L139.92 170.27H142.06L142.35 169.97V166.98L141.97 166.41H139.85L139.54 166.73V169.69ZM151.112 164H154.732V170.03L153.122 171.72H151.912V171H152.812L153.932 169.81V164.73H151.112V164ZM157.518 165.69H160.348L161.148 166.89V170.17L160.348 171H157.528L156.718 169.8V166.52L157.518 165.69ZM157.508 169.7L157.908 170.28H160.028L160.328 169.96V166.98L159.948 166.41H157.818L157.508 166.74V169.7ZM163.564 165.69H166.324L166.844 166.46L166.354 166.98L165.954 166.39H163.914L163.604 166.66V167.42L163.984 167.96H166.344L167.024 168.98V170.25L166.344 171H163.204L162.804 170.38L163.294 169.87L163.564 170.28H166.014L166.224 170.04V169.1L165.934 168.69H163.564L162.804 167.54V166.43L163.564 165.69ZM168.7 163.51H169.5V166.17L170.3 165.69H172.3L173.13 166.87V171H172.32V166.97L171.94 166.41H169.83L169.5 166.72V171H168.7V163.51ZM181.492 164H184.312L184.842 164.82L184.332 165.32L183.922 164.72H181.792L181.492 165.04V166.33L181.892 166.91H184.402L185.112 167.97V170.27L184.412 171H181.132L180.692 170.38L181.192 169.85L181.502 170.28H184.072L184.312 170.07V168.06L184.012 167.63H181.492L180.692 166.44V164.83L181.492 164ZM187.688 163.52H188.488V165.68H190.108V166.41H188.488V169.7L188.878 170.27H189.888L190.488 169.67L190.898 170.27L190.218 171H188.488L187.688 169.82V166.41H186.898V165.68H187.688V163.52ZM192.635 165.69H193.075L194.025 166.26L194.575 165.69H196.635L197.155 166.45L196.555 166.86L196.255 166.41H194.885L194.445 166.88V170.28H195.855V171H192.635V170.28H193.645V166.98L193.255 166.41H192.635V165.69ZM202.291 165.69H203.101V171H202.311V170.51L201.491 171H199.491L198.681 169.8V165.69H199.481V169.7L199.871 170.27H202.001L202.291 169.96V165.69ZM206.277 165.69H208.307L209.097 166.89V170.17L208.297 171H206.287L205.477 170.52V173.16H204.677V165.69H205.477V166.18L206.277 165.69ZM205.477 169.7L205.877 170.28H207.987L208.287 169.97V166.99L207.907 166.42H205.787L205.477 166.73V169.7ZM212.273 165.69H214.303L215.093 166.89V170.17L214.293 171H212.283L211.473 170.52V173.16H210.673V165.69H211.473V166.18L212.273 165.69ZM211.473 169.7L211.873 170.28H213.983L214.283 169.97V166.99L213.903 166.42H211.783L211.473 166.73V169.7ZM226.295 163.51H227.105V171H226.295V170.52L225.495 171H223.505L222.675 169.79V166.53L223.485 165.68H225.485L226.295 166.16V163.51ZM223.485 169.69L223.865 170.27H226.005L226.295 169.97V166.98L225.915 166.41H223.795L223.485 166.73V169.69ZM229.061 165.5H230.471L231.271 166.7V170.28H233.081V171H228.661V170.28H230.471V166.8L230.091 166.23H229.061V165.5ZM230.371 164.19H231.371V163.19H230.371V164.19ZM235.517 165.69H238.277L238.797 166.46L238.307 166.98L237.907 166.39H235.867L235.557 166.66V167.42L235.937 167.96H238.297L238.977 168.98V170.25L238.297 171H235.157L234.757 170.38L235.247 169.87L235.517 170.28H237.967L238.177 170.04V169.1L237.887 168.69H235.517L234.757 167.54V166.43L235.517 165.69ZM242.253 165.69H244.283L245.073 166.89V170.17L244.273 171H242.263L241.453 170.52V173.16H240.653V165.69H241.453V166.18L242.253 165.69ZM241.453 169.7L241.853 170.28H243.963L244.263 169.97V166.99L243.883 166.42H241.763L241.453 166.73V169.7ZM246.639 163.52H248.139L248.949 164V169.71L249.329 170.28H251.069L251.059 171H248.949L248.139 169.81V164.24H246.639V163.52ZM253.385 165.47H256.525L257.155 166.4V171H256.315V170.49L255.475 171H253.385L252.545 169.75V169.35L254.105 167.73H256.315V166.21H253.385V165.47ZM253.385 169.65L253.775 170.24H256.315V168.49H254.435L253.385 169.57V169.65ZM262.252 165.68H263.062V171.48L261.442 173.17H258.642V172.44H261.112L262.252 171.27V171H259.642L258.642 169.52V165.68H259.442V169.42L260.032 170.27H262.252V165.68ZM265.498 165.69H268.258L268.778 166.46L268.288 166.98L267.888 166.39H265.848L265.538 166.66V167.42L265.918 167.96H268.278L268.958 168.98V170.25L268.278 171H265.138L264.738 170.38L265.228 169.87L265.498 170.28H267.948L268.158 170.04V169.1L267.868 168.69H265.498L264.738 167.54V166.43L265.498 165.69ZM276.58 165.69H277.02L277.97 166.26L278.52 165.69H280.58L281.1 166.45L280.5 166.86L280.2 166.41H278.83L278.39 166.88V170.28H279.8V171H276.58V170.28H277.59V166.98L277.2 166.41H276.58V165.69ZM283.416 165.69H286.216L287.046 166.88L285.396 168.58H283.416V169.7L283.806 170.28H285.926L286.486 169.73L286.926 170.28L286.226 171H283.426L282.616 169.8V166.52L283.416 165.69ZM283.416 166.73V167.86H285.096L286.106 166.8L285.846 166.41H283.736L283.416 166.73ZM289.362 165.47H292.502L293.132 166.4V171H292.292V170.49L291.452 171H289.362L288.522 169.75V169.35L290.082 167.73H292.292V166.21H289.362V165.47ZM289.362 169.65L289.752 170.24H292.292V168.49H290.412L289.362 169.57V169.65ZM294.608 163.52H296.108L296.918 164V169.71L297.298 170.28H299.038L299.028 171H296.918L296.108 169.81V164.24H294.608V163.52ZM304.534 168.36H301.114V167.64H304.534V168.36ZM31.79 176.52H32.59V178.68H34.21V179.41H32.59V182.7L32.98 183.27H33.99L34.59 182.67L35 183.27L34.32 184H32.59L31.79 182.82V179.41H31V178.68H31.79V176.52ZM37.1861 178.5H38.5961L39.3961 179.7V183.28H41.2061V184H36.7861V183.28H38.5961V179.8L38.2161 179.23H37.1861V178.5ZM38.4961 177.19H39.4961V176.19H38.4961V177.19ZM42.5822 178.69H43.3822V179.17L44.1822 178.69H44.6022L45.0622 179.38L46.2122 178.69H46.6022L47.4122 179.88V184H46.6022V179.98L46.2222 179.41H45.7122L45.4122 179.74V181.23H44.6022V179.98L44.2222 179.41H43.6922L43.3822 179.74V184H42.5822V178.69ZM49.5683 178.69H52.3683L53.1983 179.88L51.5483 181.58H49.5683V182.7L49.9583 183.28H52.0783L52.6383 182.73L53.0783 183.28L52.3783 184H49.5783L48.7683 182.8V179.52L49.5683 178.69ZM49.5683 179.73V180.86H51.2483L52.2583 179.8L51.9983 179.41H49.8883L49.5683 179.73ZM64.4005 176.51H65.2105V184H64.4005V183.52L63.6005 184H61.6105L60.7805 182.79V179.53L61.5905 178.68H63.5905L64.4005 179.16V176.51ZM61.5905 182.69L61.9705 183.27H64.1105L64.4005 182.97V179.98L64.0205 179.41H61.9005L61.5905 179.73V182.69ZM67.5066 178.47H70.6466L71.2766 179.4V184H70.4366V183.49L69.5966 184H67.5066L66.6666 182.75V182.35L68.2266 180.73H70.4366V179.21H67.5066V178.47ZM67.5066 182.65L67.8966 183.24H70.4366V181.49H68.5566L67.5066 182.57V182.65ZM73.7627 176.52H74.5627V178.68H76.1827V179.41H74.5627V182.7L74.9527 183.27H75.9627L76.5627 182.67L76.9727 183.27L76.2927 184H74.5627L73.7627 182.82V179.41H72.9727V178.68H73.7627V176.52ZM79.4988 178.47H82.6388L83.2688 179.4V184H82.4288V183.49L81.5888 184H79.4988L78.6588 182.75V182.35L80.2188 180.73H82.4288V179.21H79.4988V178.47ZM79.4988 182.65L79.8888 183.24H82.4288V181.49H80.5488L79.4988 182.57V182.65ZM91.5609 178.69H94.3909L95.1909 179.89V183.17L94.3909 184H91.5709L90.7609 182.8V179.52L91.5609 178.69ZM91.5509 182.7L91.9509 183.28H94.0709L94.3709 182.96V179.98L93.9909 179.41H91.8609L91.5509 179.74V182.7ZM98.457 177H100.677L101.167 177.69L100.657 178.21L100.327 177.72H98.787L98.347 178.17V179.9H100.327V180.62H98.347V184H97.547V180.62H96.747V179.9H97.547V177.94L98.457 177ZM109.479 178.47H112.619L113.249 179.4V184H112.409V183.49L111.569 184H109.479L108.639 182.75V182.35L110.199 180.73H112.409V179.21H109.479V178.47ZM109.479 182.65L109.869 183.24H112.409V181.49H110.529L109.479 182.57V182.65ZM115.595 178.69H118.355L118.875 179.46L118.385 179.98L117.985 179.39H115.945L115.635 179.66V180.42L116.015 180.96H118.375L119.055 181.98V183.25L118.375 184H115.235L114.835 183.38L115.325 182.87L115.595 183.28H118.045L118.255 183.04V182.1L117.965 181.69H115.595L114.835 180.54V179.43L115.595 178.69ZM121.731 176.52H122.531V178.68H124.151V179.41H122.531V182.7L122.921 183.27H123.931L124.531 182.67L124.941 183.27L124.261 184H122.531L121.731 182.82V179.41H120.941V178.68H121.731V176.52ZM127.518 178.69H130.318L131.148 179.88L129.498 181.58H127.518V182.7L127.908 183.28H130.028L130.588 182.73L131.028 183.28L130.328 184H127.528L126.718 182.8V179.52L127.518 178.69ZM127.518 179.73V180.86H129.198L130.208 179.8L129.948 179.41H127.838L127.518 179.73ZM132.674 178.69H133.114L134.064 179.26L134.614 178.69H136.674L137.194 179.45L136.594 179.86L136.294 179.41H134.924L134.484 179.88V183.28H135.894V184H132.674V183.28H133.684V179.98L133.294 179.41H132.674V178.69ZM139.53 178.69H142.36L143.16 179.89V183.17L142.36 184H139.54L138.73 182.8V179.52L139.53 178.69ZM139.52 182.7L139.92 183.28H142.04L142.34 182.96V179.98L141.96 179.41H139.83L139.52 179.74V182.7ZM145.116 178.5H146.526L147.326 179.7V183.28H149.136V184H144.716V183.28H146.526V179.8L146.146 179.23H145.116V178.5ZM146.426 177.19H147.426V176.19H146.426V177.19ZM154.342 176.51H155.152V184H154.342V183.52L153.542 184H151.552L150.722 182.79V179.53L151.532 178.68H153.532L154.342 179.16V176.51ZM151.532 182.69L151.912 183.27H154.052L154.342 182.97V179.98L153.962 179.41H151.842L151.532 179.73V182.69ZM157.568 178.69H160.328L160.848 179.46L160.358 179.98L159.958 179.39H157.918L157.608 179.66V180.42L157.988 180.96H160.348L161.028 181.98V183.25L160.348 184H157.208L156.808 183.38L157.298 182.87L157.568 183.28H160.018L160.228 183.04V182.1L159.938 181.69H157.568L156.808 180.54V179.43L157.568 178.69ZM169.51 178.69H172.32L173.03 179.75L172.52 180.28L171.93 179.41H169.82L169.51 179.73V182.7L169.9 183.28H172.01L172.6 182.67L173.01 183.28L172.32 184H169.52L168.71 182.8V179.52L169.51 178.69ZM174.686 176.52H176.186L176.996 177V182.71L177.376 183.28H179.116L179.106 184H176.996L176.186 182.81V177.24H174.686V176.52ZM181.502 178.69H184.332L185.132 179.89V183.17L184.332 184H181.512L180.702 182.8V179.52L181.502 178.69ZM181.492 182.7L181.892 183.28H184.012L184.312 182.96V179.98L183.932 179.41H181.802L181.492 179.74V182.7ZM187.548 178.69H190.308L190.828 179.46L190.338 179.98L189.938 179.39H187.898L187.588 179.66V180.42L187.968 180.96H190.328L191.008 181.98V183.25L190.328 184H187.188L186.788 183.38L187.278 182.87L187.548 183.28H189.998L190.208 183.04V182.1L189.918 181.69H187.548L186.788 180.54V179.43L187.548 178.69ZM193.475 178.69H196.275L197.105 179.88L195.455 181.58H193.475V182.7L193.865 183.28H195.985L196.545 182.73L196.985 183.28L196.285 184H193.485L192.675 182.8V179.52L193.475 178.69ZM193.475 179.73V180.86H195.155L196.165 179.8L195.905 179.41H193.795L193.475 179.73ZM205.677 176.52H206.477V178.68H208.097V179.41H206.477V182.7L206.867 183.27H207.877L208.477 182.67L208.887 183.27L208.207 184H206.477L205.677 182.82V179.41H204.887V178.68H205.677V176.52ZM211.483 178.69H214.313L215.113 179.89V183.17L214.313 184H211.493L210.683 182.8V179.52L211.483 178.69ZM211.473 182.7L211.873 183.28H213.993L214.293 182.96V179.98L213.913 179.41H211.783L211.473 179.74V182.7ZM223.455 178.69H226.255L227.085 179.88L225.435 181.58H223.455V182.7L223.845 183.28H225.965L226.525 182.73L226.965 183.28L226.265 184H223.465L222.655 182.8V179.52L223.455 178.69ZM223.455 179.73V180.86H225.135L226.145 179.8L225.885 179.41H223.775L223.455 179.73ZM229.401 178.47H232.541L233.171 179.4V184H232.331V183.49L231.491 184H229.401L228.561 182.75V182.35L230.121 180.73H232.331V179.21H229.401V178.47ZM229.401 182.65L229.791 183.24H232.331V181.49H230.451L229.401 182.57V182.65ZM234.607 178.69H235.047L235.997 179.26L236.547 178.69H238.607L239.127 179.45L238.527 179.86L238.227 179.41H236.857L236.417 179.88V183.28H237.827V184H234.607V183.28H235.617V179.98L235.227 179.41H234.607V178.69ZM241.653 176.52H242.453V178.68H244.073V179.41H242.453V182.7L242.843 183.27H243.853L244.453 182.67L244.863 183.27L244.183 184H242.453L241.653 182.82V179.41H240.863V178.68H241.653V176.52ZM246.649 176.51H247.449V179.17L248.249 178.69H250.249L251.079 179.87V184H250.269V179.97L249.889 179.41H247.779L247.449 179.72V184H246.649V176.51ZM254.155 184V182.6H255.555V184H254.155Z" fill="white"/>
<path d="M215.879 133.25H252.148V133.75H215.879V133.25ZM256.828 133.25H287.832V133.75H256.828V133.25ZM173.906 159.25H221.875V159.75H173.906V159.25ZM30 172.25H119.941V172.75H30V172.25ZM149.922 172.25H204.18V172.75H149.922V172.25ZM205.977 172.25H210.172V172.75H205.977V172.25ZM211.977 172.25H215.879V172.75H211.977V172.25Z" fill="white"/>
<path d="M33.388 33.2H37.28V43H36.16V38.52H32.24V43H31.12V35.538L33.388 33.2ZM32.24 35.804V37.512H36.16V34.208H33.794L32.24 35.804ZM39.6405 33.2H45.0305L45.6885 34.152V35.44L43.9665 37.26H44.5265L45.8285 39.178V42.314L44.7085 43H39.6405V33.2ZM40.7605 34.208V37.26H42.5525L44.5685 35.174V34.208H40.7605ZM40.7605 38.282V41.992H44.7085V39.29L43.9945 38.282H40.7605ZM49.0151 33.2H52.9911L54.0971 34.88V41.838L52.9911 43H49.0151L47.8811 41.32V34.362L49.0151 33.2ZM49.0011 41.18L49.5471 41.992H52.5431L52.9631 41.53V35.02L52.4311 34.208H49.4351L49.0011 34.67V41.18ZM61.3576 33.2H62.4916V43H61.3576V42.314L60.2376 43H57.4096L56.2756 41.32V33.2H57.3956V41.18L57.9416 41.992H60.9096L61.3576 41.53V33.2ZM64.1241 33.2H71.4321V34.208H67.2601L68.3521 34.88V43H67.2181V35.02L66.6861 34.208H64.1241V33.2Z" fill="white"/>
<circle cx="130" cy="260" r="23.5" fill="white" stroke="black"/>
<circle cx="130" cy="278" r="5.5" fill="white" stroke="black"/>
<path d="M109.646 291H110.926V294.86H111.526V295.59H110.926V298H110.116V295.59H107.426L106.506 294.24L109.646 291ZM107.426 294.33L107.786 294.86H110.116V291.55L107.426 294.33ZM118.598 292.69H119.398V293.17L120.198 292.69H120.618L121.078 293.38L122.228 292.69H122.618L123.428 293.88V298H122.618V293.98L122.238 293.41H121.728L121.428 293.74V295.23H120.618V293.98L120.238 293.41H119.708L119.398 293.74V298H118.598V292.69ZM125.584 292.69H128.384L129.214 293.88L127.564 295.58H125.584V296.7L125.974 297.28H128.094L128.654 296.73L129.094 297.28L128.394 298H125.594L124.784 296.8V293.52L125.584 292.69ZM125.584 293.73V294.86H127.264L128.274 293.8L128.014 293.41H125.904L125.584 293.73ZM131.79 290.52H132.59V292.68H134.21V293.41H132.59V296.7L132.98 297.27H133.99L134.59 296.67L135 297.27L134.32 298H132.59L131.79 296.82V293.41H131V292.68H131.79V290.52ZM137.576 292.69H140.376L141.206 293.88L139.556 295.58H137.576V296.7L137.966 297.28H140.086L140.646 296.73L141.086 297.28L140.386 298H137.586L136.776 296.8V293.52L137.576 292.69ZM137.576 293.73V294.86H139.256L140.266 293.8L140.006 293.41H137.896L137.576 293.73ZM142.732 292.69H143.172L144.122 293.26L144.672 292.69H146.732L147.252 293.45L146.652 293.86L146.352 293.41H144.982L144.542 293.88V297.28H145.952V298H142.732V297.28H143.742V293.98L143.352 293.41H142.732V292.69ZM149.638 292.69H152.398L152.918 293.46L152.428 293.98L152.028 293.39H149.988L149.678 293.66V294.42L150.058 294.96H152.418L153.098 295.98V297.25L152.418 298H149.278L148.878 297.38L149.368 296.87L149.638 297.28H152.088L152.298 297.04V296.1L152.008 295.69H149.638L148.878 294.54V293.43L149.638 292.69Z" fill="white"/>
<path d="M100.8 224H105.03V224.72H101.6V226.07L101.66 226.17H104.13L105.24 227.79V230.13L104.4 231H100.8V230.28H104.07L104.43 229.91V227.88L103.75 226.9H101.29L100.8 226.17V224ZM107.616 224H110.436L111.226 225.19V230.17L110.436 231H107.616L106.806 229.8V224.83L107.616 224ZM107.606 225.05V228.59L110.416 225.68V225.3L110.026 224.72H107.916L107.606 225.05ZM107.606 229.7L107.996 230.28H110.116L110.416 229.95V226.71L107.606 229.63V229.7ZM114.652 226.07H115.372V227.64H116.942V228.36H115.372V229.92H114.652V228.36H113.082V227.64H114.652V226.07ZM124.594 225.69H125.394V226.17L126.194 225.69H126.614L127.074 226.38L128.224 225.69H128.614L129.424 226.88V231H128.614V226.98L128.234 226.41H127.724L127.424 226.74V228.23H126.614V226.98L126.234 226.41H125.704L125.394 226.74V231H124.594V225.69ZM131.58 225.69H134.38L135.21 226.88L133.56 228.58H131.58V229.7L131.97 230.28H134.09L134.65 229.73L135.09 230.28L134.39 231H131.59L130.78 229.8V226.52L131.58 225.69ZM131.58 226.73V227.86H133.26L134.27 226.8L134.01 226.41H131.9L131.58 226.73ZM137.786 223.52H138.586V225.68H140.206V226.41H138.586V229.7L138.976 230.27H139.986L140.586 229.67L140.996 230.27L140.316 231H138.586L137.786 229.82V226.41H136.996V225.68H137.786V223.52ZM143.572 225.69H146.372L147.202 226.88L145.552 228.58H143.572V229.7L143.962 230.28H146.082L146.642 229.73L147.082 230.28L146.382 231H143.582L142.772 229.8V226.52L143.572 225.69ZM143.572 226.73V227.86H145.252L146.262 226.8L146.002 226.41H143.892L143.572 226.73ZM148.728 225.69H149.168L150.118 226.26L150.668 225.69H152.728L153.248 226.45L152.648 226.86L152.348 226.41H150.978L150.538 226.88V230.28H151.948V231H148.728V230.28H149.738V226.98L149.348 226.41H148.728V225.69ZM155.634 225.69H158.394L158.914 226.46L158.424 226.98L158.024 226.39H155.984L155.674 226.66V227.42L156.054 227.96H158.414L159.094 228.98V230.25L158.414 231H155.274L154.874 230.38L155.364 229.87L155.634 230.28H158.084L158.294 230.04V229.1L158.004 228.69H155.634L154.874 227.54V226.43L155.634 225.69Z" fill="white"/>
<path d="M169.287 255.6H172.983L174.603 258.012V263.004L173.643 264H169.287V255.6ZM170.247 256.464V263.136H173.247L173.631 262.74V258.132L172.515 256.464H170.247ZM176.362 255.6H181.666V256.476H179.494V263.124H181.666V264H176.362V263.124H178.534V256.476H176.362V255.6ZM185.513 255.6H188.849V264H187.889V260.16H184.529V264H183.569V257.604L185.513 255.6ZM184.529 257.832V259.296H187.889V256.464H185.861L184.529 257.832ZM190.753 255.6H191.713V255.936L192.973 257.796L195.097 255.6H196.069V264H195.097V256.86L193.909 258.108V259.2H192.865V259.176L191.713 257.472V264H190.753V255.6ZM198.908 255.6H203.252V256.464H199.268L198.896 256.86V259.08H201.68V259.956H198.896V262.44L199.364 263.136H203.252V264H198.896L197.936 262.56V256.596L198.908 255.6ZM204.663 255.6H210.927V256.464H207.351L208.287 257.04V264H207.315V257.16L206.859 256.464H204.663V255.6ZM213.299 255.6H217.643V256.464H213.659L213.287 256.86V259.08H216.071V259.956H213.287V262.44L213.755 263.136H217.643V264H213.287L212.327 262.56V256.596L213.299 255.6ZM219.522 255.6H223.554L224.85 257.484V258.684L223.662 259.896L224.85 261.612V264H223.878V261.72L222.666 259.956H221.43L220.482 259.368V264H219.522V255.6ZM220.482 256.464V259.08H223.266L223.878 258.468V257.616L223.086 256.464H220.482Z" fill="white"/>
<path d="M141.446 345.6H142.406V351.288L139.802 354H138.962L137.102 351.24V345.6H138.062V351.108L139.418 353.148L141.446 351.048V345.6ZM145.257 345.6H149.601V346.464H145.617L145.245 346.86V349.08H148.029V349.956H145.245V352.44L145.713 353.136H149.601V354H145.245L144.285 352.56V346.596L145.257 345.6ZM151.481 345.6H152.441V352.416L152.933 353.124H155.837V352.26H156.809V354H152.477L151.481 352.512V345.6ZM159.648 345.6H163.056L164.004 347.04V353.004L163.056 354H159.648L158.676 352.56V346.596L159.648 345.6ZM159.636 352.44L160.104 353.136H162.672L163.032 352.74V347.16L162.576 346.464H160.008L159.636 346.86V352.44ZM167.047 345.6H170.419L171.211 346.8L170.599 347.448L169.963 346.464H167.407L167.035 346.86V352.44L167.503 353.136H170.035L170.755 352.416L171.235 353.136L170.419 354H167.035L166.075 352.56V346.596L167.047 345.6ZM173.079 345.6H178.383V346.476H176.211V353.124H178.383V354H173.079V353.124H175.251V346.476H173.079V345.6ZM179.794 345.6H186.058V346.464H182.482L183.418 347.04V354H182.446V347.16L181.99 346.464H179.794V345.6ZM191.801 345.6H192.773V347.568L190.589 349.824V354H189.629V349.932L187.457 346.704V345.6H188.417V346.596L190.085 349.08H190.109L191.801 347.316V345.6Z" fill="white"/>
<path d="M65.2117 382H66.0217V388.28H67.8217V389H63.4017V388.28H65.2117V383.05L63.9517 384.35L63.5317 383.72L65.2117 382ZM75.3939 381.52H76.1939V385.56L78.3039 383.38H79.3039L77.7939 384.93L79.8239 387.93V389H79.0139V388.02L77.2739 385.47L76.1939 386.58V389H75.3939V381.52ZM81.19 383.69H81.99V384.17L82.79 383.69H83.21L83.67 384.38L84.82 383.69H85.21L86.02 384.88V389H85.21V384.98L84.83 384.41H84.32L84.02 384.74V386.23H83.21V384.98L82.83 384.41H82.3L81.99 384.74V389H81.19V383.69ZM90.8361 381.23L91.5161 381.46L88.3461 390.77L87.6761 390.54L90.8361 381.23ZM94.2422 383.69H97.0022L97.5222 384.46L97.0322 384.98L96.6322 384.39H94.5922L94.2822 384.66V385.42L94.6622 385.96H97.0222L97.7022 386.98V388.25L97.0222 389H93.8822L93.4822 388.38L93.9722 387.87L94.2422 388.28H96.6922L96.9022 388.04V387.1L96.6122 386.69H94.2422L93.4822 385.54V384.43L94.2422 383.69Z" fill="white"/>
<path d="M222.994 382H227.224V382.72H223.794V384.07L223.854 384.17H226.324L227.434 385.79V388.13L226.594 389H222.994V388.28H226.264L226.624 387.91V385.88L225.944 384.9H223.484L222.994 384.17V382ZM229.81 382H232.63L233.42 383.19V388.17L232.63 389H229.81L229 387.8V382.83L229.81 382ZM229.8 383.05V386.59L232.61 383.68V383.3L232.22 382.72H230.11L229.8 383.05ZM229.8 387.7L230.19 388.28H232.31L232.61 387.95V384.71L229.8 387.63V387.7ZM236.846 384.07H237.566V385.64H239.136V386.36H237.566V387.92H236.846V386.36H235.276V385.64H236.846V384.07ZM246.988 381.52H247.788V385.56L249.898 383.38H250.898L249.388 384.93L251.418 387.93V389H250.608V388.02L248.868 385.47L247.788 386.58V389H246.988V381.52ZM252.785 383.69H253.585V384.17L254.385 383.69H254.805L255.265 384.38L256.415 383.69H256.805L257.615 384.88V389H256.805V384.98L256.425 384.41H255.915L255.615 384.74V386.23H254.805V384.98L254.425 384.41H253.895L253.585 384.74V389H252.785V383.69ZM262.431 381.23L263.111 381.46L259.941 390.77L259.271 390.54L262.431 381.23ZM265.837 383.69H268.597L269.117 384.46L268.627 384.98L268.227 384.39H266.187L265.877 384.66V385.42L266.257 385.96H268.617L269.297 386.98V388.25L268.617 389H265.477L265.077 388.38L265.567 387.87L265.837 388.28H268.287L268.497 388.04V387.1L268.207 386.69H265.837L265.077 385.54V384.43L265.837 383.69Z" fill="white"/>
<rect x="256.93" y="372" width="182.467" height="7.00001" rx="3.50001" transform="rotate(180 256.93 372)" fill="url(#paint0_linear_799_1559)"/>
<defs>
<linearGradient id="paint0_linear_799_1559" x1="256.93" y1="375.5" x2="439.396" y2="375.5" gradientUnits="userSpaceOnUse">
<stop stop-color="white"/>
<stop offset="1"/>
</linearGradient>
</defs>
</svg>
