<?xml version="1.0" encoding="utf-8"?>
<!-- Generator: Adobe Illustrator 27.7.0, SVG Export Plug-In . SVG Version: 6.00 Build 0)  -->
<svg version="1.1" id="Layer_1" xmlns="http://www.w3.org/2000/svg" xmlns:xlink="http://www.w3.org/1999/xlink" x="0px" y="0px"
	 viewBox="0 0 191 167" style="enable-background:new 0 0 191 167;" xml:space="preserve">
<style type="text/css">
	.st0{fill:none;stroke:#FFFFFF;stroke-width:7;stroke-miterlimit:10;}
	.st1{fill:#FFFFFF;stroke:#FFFFFF;stroke-miterlimit:10;}
</style>
<path class="st0" d="M96.7,137c-5.3,1.6-10.9,2.5-16.7,2.5c-30.9,0-56-25.1-56-56s25.1-56,56-56c24.8,0,45.8,16.1,53.2,38.4"/>
<path class="st1" d="M162.2,65.5c-9.2,13.8-18.4,27.7-27.6,41.5c-0.7,1-2.2,1-2.9,0c-9.3-13.8-18.6-27.6-27.9-41.3
	c-0.8-1.2,0-2.7,1.4-2.7v0l28-0.1l27.5-0.1C162.1,62.8,162.9,64.3,162.2,65.5z"/>
</svg>
