<svg width="230" height="50" viewBox="0 0 230 50" fill="none" xmlns="http://www.w3.org/2000/svg">
<path d="M88.4462 3.6H89.4062V9.288L86.8022 12H85.9622L84.1022 9.24V3.6H85.0622V9.108L86.4182 11.148L88.4462 9.048V3.6ZM92.2575 3.6H96.6015V4.464H92.6175L92.2455 4.86V7.08H95.0295V7.956H92.2455V10.44L92.7135 11.136H96.6015V12H92.2455L91.2855 10.56V4.596L92.2575 3.6ZM98.4808 3.6H99.4408V10.416L99.9328 11.124H102.837V10.26H103.809V12H99.4768L98.4808 10.512V3.6ZM106.648 3.6H110.056L111.004 5.04V11.004L110.056 12H106.648L105.676 10.56V4.596L106.648 3.6ZM106.636 10.44L107.104 11.136H109.672L110.032 10.74V5.16L109.576 4.464H107.008L106.636 4.86V10.44ZM114.047 3.6H117.419L118.211 4.8L117.599 5.448L116.963 4.464H114.407L114.035 4.86V10.44L114.503 11.136H117.035L117.755 10.416L118.235 11.136L117.419 12H114.035L113.075 10.56V4.596L114.047 3.6ZM120.079 3.6H125.383V4.476H123.211V11.124H125.383V12H120.079V11.124H122.251V4.476H120.079V3.6ZM126.794 3.6H133.058V4.464H129.482L130.418 5.04V12H129.446V5.16L128.99 4.464H126.794V3.6ZM138.801 3.6H139.773V5.568L137.589 7.824V12H136.629V7.932L134.457 4.704V3.6H135.417V4.596L137.085 7.08H137.109L138.801 5.316V3.6Z" fill="white"/>
<path d="M12.2117 40H13.0217V46.28H14.8217V47H10.4017V46.28H12.2117V41.05L10.9517 42.35L10.5317 41.72L12.2117 40ZM22.3939 39.52H23.1939V43.56L25.3039 41.38H26.3039L24.7939 42.93L26.8239 45.93V47H26.0139V46.02L24.2739 43.47L23.1939 44.58V47H22.3939V39.52ZM28.19 41.69H28.99V42.17L29.79 41.69H30.21L30.67 42.38L31.82 41.69H32.21L33.02 42.88V47H32.21V42.98L31.83 42.41H31.32L31.02 42.74V44.23H30.21V42.98L29.83 42.41H29.3L28.99 42.74V47H28.19V41.69ZM37.8361 39.23L38.5161 39.46L35.3461 48.77L34.6761 48.54L37.8361 39.23ZM41.2422 41.69H44.0022L44.5222 42.46L44.0322 42.98L43.6322 42.39H41.5922L41.2822 42.66V43.42L41.6622 43.96H44.0222L44.7022 44.98V46.25L44.0222 47H40.8822L40.4822 46.38L40.9722 45.87L41.2422 46.28H43.6922L43.9022 46.04V45.1L43.6122 44.69H41.2422L40.4822 43.54V42.43L41.2422 41.69Z" fill="white"/>
<path d="M169.994 40H174.224V40.72H170.794V42.07L170.854 42.17H173.324L174.434 43.79V46.13L173.594 47H169.994V46.28H173.264L173.624 45.91V43.88L172.944 42.9H170.484L169.994 42.17V40ZM176.81 40H179.63L180.42 41.19V46.17L179.63 47H176.81L176 45.8V40.83L176.81 40ZM176.8 41.05V44.59L179.61 41.68V41.3L179.22 40.72H177.11L176.8 41.05ZM176.8 45.7L177.19 46.28H179.31L179.61 45.95V42.71L176.8 45.63V45.7ZM183.846 42.07H184.566V43.64H186.136V44.36H184.566V45.92H183.846V44.36H182.276V43.64H183.846V42.07ZM193.988 39.52H194.788V43.56L196.898 41.38H197.898L196.388 42.93L198.418 45.93V47H197.608V46.02L195.868 43.47L194.788 44.58V47H193.988V39.52ZM199.785 41.69H200.585V42.17L201.385 41.69H201.805L202.265 42.38L203.415 41.69H203.805L204.615 42.88V47H203.805V42.98L203.425 42.41H202.915L202.615 42.74V44.23H201.805V42.98L201.425 42.41H200.895L200.585 42.74V47H199.785V41.69ZM209.431 39.23L210.111 39.46L206.941 48.77L206.271 48.54L209.431 39.23ZM212.837 41.69H215.597L216.117 42.46L215.627 42.98L215.227 42.39H213.187L212.877 42.66V43.42L213.257 43.96H215.617L216.297 44.98V46.25L215.617 47H212.477L212.077 46.38L212.567 45.87L212.837 46.28H215.287L215.497 46.04V45.1L215.207 44.69H212.837L212.077 43.54V42.43L212.837 41.69Z" fill="white"/>
<rect x="203.93" y="30" width="182.467" height="7.00001" rx="3.50001" transform="rotate(180 203.93 30)" fill="url(#paint0_linear_799_1557)"/>
<defs>
<linearGradient id="paint0_linear_799_1557" x1="203.93" y1="33.5" x2="386.396" y2="33.5" gradientUnits="userSpaceOnUse">
<stop stop-color="white"/>
<stop offset="1"/>
</linearGradient>
</defs>
</svg>
